<?xml version="1.0" encoding="utf-8"?>
<!-- Generator: Adobe Illustrator 25.4.1, SVG Export Plug-In . SVG Version: 6.00 Build 0)  -->
<svg version="1.1" id="Layer_1" xmlns="http://www.w3.org/2000/svg" xmlns:xlink="http://www.w3.org/1999/xlink" x="0px" y="0px"
	 viewBox="0 0 211.6 52.4" style="enable-background:new 0 0 211.6 52.4;" xml:space="preserve">
<style type="text/css">
	.st0{fill:#466FFF;}
</style>
<g>
	<path class="st0" d="M170.4,30.4c-1.6-0.7-2.7-2.3-2.7-4.1c0,0,0,0,0,0c0,0,0-3.6,0-3.8l0,0.5c-0.1-6-5.1-10.9-11.1-10.9H156
		c-6.1,0-11.1,5-11.1,11.1c0,0,0,3.6,0,3.8l0-0.5c0.1,6,5.1,10.9,11.1,10.9h0.6c2.7,0,5.2-1,7.1-2.6c-1.6-1.6-2.8-3.6-3.4-5.9
		c-0.8,1.2-2.2,1.9-3.7,1.9H156c-2.5,0-4.6-2.1-4.6-4.6v-3.1c0-2.5,2.1-4.6,4.6-4.6h0.6c2.5,0,4.6,2.1,4.6,4.6v1.2h0
		c0,0.6,0,1.4,0,1.9c0,0.1,0,0.2,0,0.3c0.2,4.5,3,8.4,7.1,10c1.6,0.6,3.4-0.2,4.1-1.8c0-0.1,1.1-3.1,1.1-3.1
		C172,31.2,170.9,30.7,170.4,30.4L170.4,30.4z"/>
	<path class="st0" d="M72.4,3.7C72.4,3.7,72.4,3.7,72.4,3.7l0-3.7h-3.1c-0.3,0-0.6,0.1-0.8,0.2C67.1,0.6,66,2,66,3.7c0,0,0,0,0,0.1
		v0h0v9.4c-1.4-0.7-3-1.1-4.7-1.1h-0.6c-6.1,0-11,5-11,11c0,0,0,3.5,0,3.7l0-0.5c0.1,6,5,10.8,11,10.8h0.6c6.1,0,11-5,11-11
		c0,0,0,0,0,0c0-0.1,0-0.9,0-1.8V3.7L72.4,3.7L72.4,3.7C72.4,3.7,72.4,3.7,72.4,3.7z M65.9,26.3c0,2.5-2,4.5-4.5,4.5h-0.6
		c-2.5,0-4.5-2-4.5-4.5v-3.1c0-2.5,2-4.5,4.5-4.5h0.6c2.5,0,4.5,2,4.5,4.5V26.3z"/>
	<path class="st0" d="M96.8,3.7C96.8,3.7,96.8,3.7,96.8,3.7l0-3.7h-3.1c-0.3,0-0.6,0.1-0.8,0.2c-1.4,0.4-2.4,1.8-2.4,3.5
		c0,0,0,0,0,0.1v0h0v9.4c-1.4-0.7-3-1.1-4.7-1.1h-0.6c-6.1,0-11,5-11,11c0,0,0,3.5,0,3.7l0-0.5c0.1,6,5,10.8,11,10.8h0.6
		c6.1,0,11-5,11-11c0,0,0,0,0,0c0-0.3,0-3.5,0-3.7V3.7L96.8,3.7L96.8,3.7C96.8,3.7,96.8,3.7,96.8,3.7z M90.3,26.3
		c0,2.5-2,4.5-4.5,4.5h-0.6c-2.5,0-4.5-2-4.5-4.5v-3.1c0-2.5,2-4.5,4.5-4.5h0.6c2.5,0,4.5,2,4.5,4.5V26.3z"/>
	<path class="st0" d="M211.5,22.4c-0.1-5.7-4.8-10.3-10.5-10.3h-0.6c-5.8,0-10.5,4.7-10.5,10.5c0,0,0,0.1,0,4.1c0,0.1,0,0.1,0,0.1
		c0,5.7,4.6,10.4,10.3,10.5v0h0.2h0.6h3.4h3.1h3.1v-2.8h0c0,0,0-0.1,0-0.1c0-0.1,0-0.1,0-0.2c0-1.6-1.3-3-2.9-3.1c0,0,0,0,0,0h-6.7
		c0,0,0,0-0.1,0h-0.6c-2.4,0-4.3-1.9-4.3-4.3v-0.1v-0.1v-4c0-2.4,1.9-4.3,4.3-4.3h0.6c2.4,0,4.3,1.9,4.3,4.3v0.1h-1.8h-2.4h-0.7
		h-3.1c0,0,0,1.8,0,1.8c0,1.7,1.4,3.1,3.1,3.1v0h0.7h6.6h0.7v0c1.7,0,3.1-1.4,3.1-3.1c0-0.1,0-0.1,0-0.2c0,0,0-0.1,0-0.1h0v-1.3
		c0-0.1,0-0.1,0-0.2c0-0.4,0-0.7,0-0.7L211.5,22.4z"/>
	<path class="st0" d="M132.1,25.5v-1.6c0-2.7,2.2-4.9,4.9-4.9l3.8,0c0,0,0,0,0,0c1.9,0,3.5-1.5,3.5-3.4h0v-3.5l-7.3,0
		c0,0-0.3,0-0.3,0v0l0,0c-6.4,0.1-11.6,5.4-11.6,11.8v1.6c0,6.5,5.3,11.8,11.8,11.8c0,0,4.3,0,4.3,0c1.9,0,3.5-1.5,3.5-3.4h0v-3.5
		l-7.8,0C134.3,30.4,132.1,28.2,132.1,25.5z"/>
	<path class="st0" d="M47.5,16c0-1.7-1-3.2-2.5-3.6c-0.3-0.1-0.6-0.2-0.9-0.3H41V16c0,0,0,0,0,0s0,0,0,0v0.1h0v9.2h0v1
		c0,2.5-2,4.5-4.5,4.5h-0.6c-2.5,0-4.5-2-4.5-4.5v-7.5h0v-2.7h0v0c0,0,0,0,0-0.1c0-1.7-1-3.2-2.5-3.6c-0.3-0.1-0.6-0.2-0.9-0.3h-3.2
		V16c0,0,0,0,0,0s0,0,0,0v0.1h0v1.1c0-0.1,0,0.4,0,1.5c0,0.4,0,0.8,0,1.3v5.3l0,0c0,1,0,1.6,0,1.7l0-0.5c0.1,6,5,10.8,11,10.8h0.6
		c6.1,0,11-5,11-11l0-7.5h0v-2.7h0L47.5,16C47.5,16,47.5,16,47.5,16z"/>
	<path class="st0" d="M122,16c0-1.7-1-3.2-2.5-3.6c-0.3-0.1-0.6-0.2-0.9-0.3h-3.2V16c0,0,0,0,0,0s0,0,0,0v0.1h0v10.2
		c0,2.5-2,4.5-4.5,4.5h-0.6c-2.5,0-4.5-2-4.5-4.5v-7.5h0v-2.7h0v0c0,0,0,0,0-0.1c0-1.7-1-3.2-2.5-3.6c-0.3-0.1-0.6-0.2-0.9-0.3h-3.2
		V16c0,0,0,0,0,0s0,0,0,0v0.1h0v1.1c0-0.1,0,0.4,0,1.5c0,0.4,0,0.8,0,1.3v5.3h0c0,1,0,1.6,0,1.7l0-0.5c0.1,6,5,10.8,11,10.8h0.6
		c1.6,0,3.2-0.4,4.5-1V46h0v2.5h0v0c0,0,0,0,0,0.1c0,1.7,1,3.2,2.5,3.6c0.3,0.1,0.6,0.2,0.9,0.3h3.2v-3.8c0,0,0,0,0,0c0,0,0,0,0,0
		v-0.1h0V18.6h0v-2.5h0L122,16C122,16,122,16,122,16z"/>
	<path class="st0" d="M190.5,15.7v-3.3c0-0.1-0.1-0.2-0.2-0.2h-2.8c0,0,0,0,0,0c0,0,0,0,0,0h-0.1h-1.4h-1.6c-0.1,0-0.1,0-0.2,0v0
		c-1.7,0-3.3,0.5-4.6,1.3c-0.4-0.5-1-0.9-1.6-1.1c-0.3-0.1-0.6-0.2-0.9-0.3H174V16c0,0,0,0,0,0s0,0,0,0v0.1h0V31h0v2.5h0v0
		c0,0,0,0,0,0.1c0,1.7,1,3.2,2.5,3.6c0.3,0.1,0.6,0.2,0.9,0.3h3.2v-3.8c0,0,0,0,0,0c0,0,0,0,0,0v-0.1h0V22.1c0.3-2,2-3.5,4.1-3.5
		h2.9v0h0c0,0,0,0,0.1,0c1.3,0,2.5-0.6,2.8-1.7C190.5,16.6,190.5,16,190.5,15.7z"/>
	<path class="st0" d="M11.6,12.2H11c-1.7,0-3.3,0.4-4.7,1.1V3.8h0v0c0,0,0,0,0-0.1c0-1.7-1-3.1-2.4-3.5C3.7,0.1,3.4,0,3.1,0H0v3.7
		c0,0,0,0,0,0c0,0,0,0,0,0v0.1l0,0v21c0,0.7,0,1.3,0,1.4c0,0,0,0,0,0c0,6.1,5,11,11,11h0.6c6,0,10.9-4.9,11-10.8l0,0.5
		c0-0.2,0-3.7,0-3.7C22.7,17.2,17.7,12.2,11.6,12.2z M16.2,26.3c0,2.5-2,4.5-4.5,4.5H11c-2.5,0-4.5-2-4.5-4.5v-3.1
		c0-2.5,2-4.5,4.5-4.5h0.6c2.5,0,4.5,2,4.5,4.5V26.3z"/>
</g>
</svg>
