<svg width="23" height="30" viewBox="0 0 23 30" fill="none" xmlns="http://www.w3.org/2000/svg">
<g clip-path="url(#clip0_876_19994)">
<path d="M10.0805 29.25C6.95391 25.4883 0 16.3711 0 11.25C0 5.03672 5.14865 0 11.5 0C17.849 0 23 5.03672 23 11.25C23 16.3711 15.9922 25.4883 12.9195 29.25C12.1828 30.1465 10.8172 30.1465 10.0805 29.25Z" fill="#AAB1BB"/>
</g>
<path d="M16.7263 11.5911C16.7263 14.226 14.541 16.3638 11.8475 16.3638C9.15404 16.3638 6.96875 14.226 6.96875 11.5911C6.96875 8.95614 9.15404 6.81836 11.8475 6.81836C14.541 6.81836 16.7263 8.95614 16.7263 11.5911Z" fill="#4E4B66"/>
<defs>
<clipPath id="clip0_876_19994">
<rect width="23" height="30" fill="white"/>
</clipPath>
</defs>
</svg>
