<svg width="18" height="20" viewBox="0 0 18 20" fill="none" xmlns="http://www.w3.org/2000/svg">
<path fill-rule="evenodd" clip-rule="evenodd" d="M14.6873 8.7499H15.6237C16.1217 8.74879 16.5997 8.94584 16.9523 9.29759C17.3048 9.64935 17.503 10.1269 17.503 10.6249V18.125C17.503 19.1605 16.6635 20 15.6279 20H1.87502C0.839473 20 0 19.1605 0 18.125V10.6249C0 9.58937 0.839473 8.7499 1.87502 8.7499H2.81252V5.93738C2.81252 2.65825 5.47078 0 8.7499 0C12.029 0 14.6873 2.65825 14.6873 5.93738V8.7499ZM5.93714 5.93744V8.74997H11.5622V5.93744C11.5622 4.38413 10.303 3.12492 8.74966 3.12492C7.19635 3.12492 5.93714 4.38413 5.93714 5.93744Z" fill="#466FFF"/>
</svg>
