<svg width="40" height="40" viewBox="0 0 40 40" fill="none" xmlns="http://www.w3.org/2000/svg">
<g clip-path="url(#clip0_1965_3989)">
<path d="M30.6071 30.6045C29.9289 31.2827 28.8376 31.2827 28.1594 30.6045L20.0005 22.4455L11.8416 30.6044C11.1659 31.2801 10.0691 31.2806 9.3934 30.605C8.71774 29.9293 8.7157 28.835 9.39391 28.1568L17.5528 19.9979L9.39391 11.8389C8.71825 11.1633 8.71774 10.0674 9.3934 9.39176C10.067 8.71814 11.1659 8.71559 11.8416 9.39125L20.0005 17.5502L28.1594 9.39125C28.8351 8.71559 29.9309 8.7161 30.6066 9.39176C31.2823 10.0674 31.2828 11.1633 30.6071 11.8389L22.4482 19.9978L30.6071 28.1568C31.2853 28.835 31.2802 29.9313 30.6071 30.6045Z" fill="white"/>
</g>
<defs>
<clipPath id="clip0_1965_3989">
<rect width="40" height="40" fill="white"/>
</clipPath>
</defs>
</svg>
