<svg width="20" height="20" viewBox="0 0 20 20" fill="none" xmlns="http://www.w3.org/2000/svg">
<g clip-path="url(#clip0_719_3927)">
<path d="M10 0C4.47656 0 0 4.47656 0 10C0 15.5234 4.47656 20 10 20C15.5234 20 20 15.5234 20 10C20 4.47656 15.5234 0 10 0ZM10 5C11.5535 5 12.8125 6.25938 12.8125 7.8125C12.8125 9.36563 11.5547 10.625 10 10.625C8.44687 10.625 7.1875 9.36563 7.1875 7.8125C7.1875 6.25938 8.44531 5 10 5ZM10 17.5C7.93242 17.5 6.05859 16.659 4.69922 15.3012C5.33203 13.668 6.89453 12.5 8.75 12.5H11.25C13.107 12.5 14.6695 13.6672 15.3008 15.3012C13.9414 16.6602 12.0664 17.5 10 17.5Z" fill="#466FFF"/>
</g>
<defs>
<clipPath id="clip0_719_3927">
<rect width="20" height="20" fill="white"/>
</clipPath>
</defs>
</svg>
