<svg width="30" height="40" viewBox="0 0 30 40" fill="none" xmlns="http://www.w3.org/2000/svg">
<g clip-path="url(#clip0_876_20006)">
<path d="M13.1484 39C9.07031 33.9844 0 21.8281 0 15C0 6.71563 6.71562 0 15 0C23.2812 0 30 6.71563 30 15C30 21.8281 20.8594 33.9844 16.8516 39C15.8906 40.1953 14.1094 40.1953 13.1484 39Z" fill="#FF3131"/>
</g>
<path d="M21.8171 15.4535C21.8171 18.9667 18.9667 21.8171 15.4535 21.8171C11.9402 21.8171 9.08984 18.9667 9.08984 15.4535C9.08984 11.9402 11.9402 9.08984 15.4535 9.08984C18.9667 9.08984 21.8171 11.9402 21.8171 15.4535Z" fill="white" fill-opacity="0.5"/>
<defs>
<clipPath id="clip0_876_20006">
<rect width="30" height="40" fill="white"/>
</clipPath>
</defs>
</svg>
