<?xml version="1.0" standalone="no"?>
<!DOCTYPE svg PUBLIC "-//W3C//DTD SVG 20010904//EN"
 "http://www.w3.org/TR/2001/REC-SVG-20010904/DTD/svg10.dtd">
<svg version="1.0" xmlns="http://www.w3.org/2000/svg"
 width="20" height="20" viewBox="0 0 100.000000 100.000000"
 preserveAspectRatio="xMidYMid meet">

<g transform="translate(0.000000,100.000000) scale(0.100000,-0.100000)"
fill="#466fff" stroke="none">
<path d="M177 986 c-62 -17 -116 -61 -147 -122 l-25 -48 0 -316 0 -316 26 -49
c32 -62 93 -110 159 -124 67 -14 553 -14 620 0 66 14 127 62 159 124 l26 49 0
316 0 316 -26 49 c-32 62 -93 110 -159 124 -74 16 -571 13 -633 -3z m270 -158
l23 -21 0 -298 c0 -368 11 -342 -149 -347 l-111 -4 -30 30 -30 30 0 292 0 291
25 24 c23 24 30 25 136 25 102 0 115 -2 136 -22z m395 -73 c5 -7 1 -18 -7 -25
-13 -11 -20 -9 -40 10 l-25 23 0 -258 0 -258 23 20 c12 11 28 18 35 16 24 -9
11 -39 -37 -87 l-48 -48 -52 48 c-51 47 -66 84 -34 84 9 0 27 -10 40 -22 l23
-21 0 262 0 262 -26 -20 c-70 -55 -72 -1 -4 63 l50 47 48 -41 c26 -23 50 -48
54 -55z"/>
<path d="M218 799 c-17 -9 -18 -34 -18 -287 0 -203 3 -281 12 -290 8 -8 45
-12 99 -12 93 0 119 11 119 51 0 16 -7 19 -49 19 -49 0 -79 18 -66 40 3 5 31
10 61 10 51 0 54 1 54 25 0 23 -3 25 -49 25 -49 0 -79 18 -66 40 3 5 31 10 61
10 51 0 54 1 54 25 0 23 -3 25 -49 25 -49 0 -79 18 -66 40 3 5 31 10 61 10 53
0 54 0 54 30 0 28 -1 29 -57 32 -44 2 -58 7 -58 18 0 11 14 16 58 18 53 3 57
5 57 27 0 23 -4 25 -49 25 -49 0 -79 18 -66 40 3 5 31 10 61 10 51 0 54 2 54
24 0 45 -24 56 -113 56 -45 0 -90 -5 -99 -11z"/>
</g>
</svg>
