<?xml version="1.0" standalone="no"?>
<!DOCTYPE svg PUBLIC "-//W3C//DTD SVG 20010904//EN"
 "http://www.w3.org/TR/2001/REC-SVG-20010904/DTD/svg10.dtd">
<svg version="1.0" xmlns="http://www.w3.org/2000/svg"
 width="20" height="20" viewBox="0 0 100.000000 100.000000"
 preserveAspectRatio="xMidYMid meet">

<g transform="translate(0.000000,100.000000) scale(0.100000,-0.100000)"
fill="#466fff" stroke="none">
<path d="M177 986 c-62 -17 -116 -61 -147 -122 l-25 -48 0 -316 0 -316 26 -49
c32 -62 93 -110 159 -124 67 -14 553 -14 620 0 66 14 127 62 159 124 l26 49 0
316 0 316 -26 49 c-32 62 -93 110 -159 124 -74 16 -571 13 -633 -3z m159 -81
c8 -13 14 -32 12 -42 -2 -12 7 -23 27 -34 34 -18 75 -73 75 -100 0 -11 9 -28
20 -39 30 -30 25 -44 -32 -104 -66 -68 -83 -76 -153 -76 -53 0 -60 3 -102 43
-25 23 -56 52 -69 64 -29 26 -31 57 -6 75 10 7 22 25 25 39 8 32 81 109 103
109 12 0 14 7 9 29 -12 56 59 85 91 36z m437 -59 c46 -19 85 -63 93 -101 3
-19 15 -41 25 -51 29 -26 24 -41 -33 -96 -125 -119 -180 -118 -304 7 -24 25
-44 50 -44 56 0 20 21 49 35 49 8 0 12 6 9 15 -10 26 36 91 80 114 48 24 93
27 139 7z m2 -381 c14 -13 25 -34 25 -46 0 -12 16 -39 35 -60 19 -22 35 -47
35 -57 0 -11 9 -27 20 -37 33 -30 24 -55 -42 -117 -109 -102 -173 -101 -278 1
-33 32 -60 66 -60 75 0 9 11 26 25 38 13 11 22 25 19 29 -7 12 20 60 50 88 14
14 26 33 26 43 0 32 45 68 85 68 25 0 44 -8 60 -25z m-386 -56 c9 -14 26 -41
38 -60 13 -19 23 -43 23 -54 0 -11 9 -28 20 -38 11 -9 20 -24 20 -33 0 -9 -29
-44 -64 -79 -50 -50 -72 -64 -104 -70 -56 -9 -102 8 -145 53 -20 20 -47 45
-61 55 -31 22 -34 62 -6 79 11 7 20 20 20 30 0 9 12 30 26 47 14 17 30 46 35
65 l9 34 87 -1 c81 -2 87 -4 102 -28z"/>
<path d="M270 885 c0 -8 4 -15 10 -15 5 0 7 7 4 15 -4 8 -8 15 -10 15 -2 0 -4
-7 -4 -15z"/>
<path d="M225 802 c-30 -21 -43 -39 -54 -75 -11 -34 -20 -47 -33 -47 -27 0
-20 -42 10 -55 12 -5 25 -17 27 -26 9 -28 78 -69 116 -69 41 0 95 31 110 64 6
13 20 27 30 29 25 7 36 37 18 51 -8 6 -21 31 -29 56 -10 30 -26 52 -49 67 -30
20 -35 21 -54 8 -12 -8 -27 -15 -34 -15 -20 0 -16 28 5 33 14 4 14 5 -3 6 -11
0 -38 -12 -60 -27z m15 -163 c0 -23 -28 -26 -37 -3 -6 16 15 37 29 28 4 -3 8
-14 8 -25z m126 -17 c-4 -3 -11 -1 -18 6 -8 8 -8 15 3 28 13 16 14 16 17 -5 2
-13 1 -25 -2 -29z m-26 -51 c0 -23 -58 -27 -86 -6 -17 13 -15 14 34 15 28 0
52 -4 52 -9z"/>
<path d="M664 831 c-29 -13 -84 -78 -84 -101 0 -29 -11 -50 -26 -50 -19 0 -18
-36 2 -44 26 -10 31 -7 30 17 -1 15 8 26 31 37 18 8 33 20 33 27 0 6 8 14 18
16 16 4 16 5 0 6 -29 2 -21 19 12 26 34 8 90 -2 90 -16 0 -5 -6 -9 -12 -9 -7
0 -5 -5 5 -11 9 -6 15 -14 12 -19 -3 -4 5 -10 18 -14 34 -8 49 -39 31 -65 -8
-11 -22 -21 -31 -21 -10 0 -13 -6 -9 -16 3 -9 6 -18 6 -21 0 -2 20 16 45 40
47 48 54 62 32 70 -7 3 -18 22 -25 44 -23 78 -114 131 -178 104z"/>
<path d="M703 743 c9 -2 23 -2 30 0 6 3 -1 5 -18 5 -16 0 -22 -2 -12 -5z"/>
<path d="M682 703 c-10 -4 -10 -8 -1 -19 15 -18 43 -18 58 0 17 20 -22 33 -57
19z"/>
<path d="M682 620 c-9 -25 -8 -30 9 -35 28 -9 56 3 54 23 -3 49 -47 58 -63 12z"/>
<path d="M599 601 c29 -53 125 -79 167 -45 18 14 17 15 -18 9 -21 -3 -54 -3
-74 1 -28 5 -35 10 -31 25 3 12 0 19 -8 19 -7 0 -21 3 -30 7 -15 5 -16 3 -6
-16z"/>
<path d="M676 449 c-14 -11 -26 -24 -26 -28 0 -3 27 -7 60 -6 65 0 77 12 38
39 -29 21 -40 20 -72 -5z"/>
<path d="M654 381 c-41 -25 -74 -68 -74 -97 0 -36 50 -32 107 8 46 31 47 31
77 13 17 -9 43 -21 57 -25 24 -7 26 -6 20 14 -9 33 -56 84 -86 96 -39 15 -66
12 -101 -9z"/>
<path d="M705 265 l-30 -24 27 -1 c15 0 38 5 52 12 24 10 24 12 8 24 -23 18
-22 18 -57 -11z"/>
<path d="M547 244 c-16 -16 -6 -44 18 -50 13 -3 27 -14 30 -24 3 -9 14 -25 25
-35 19 -17 20 -17 20 2 0 12 -12 28 -26 38 -19 12 -25 23 -21 41 2 13 1 24 -4
24 -4 0 -14 2 -21 5 -8 3 -17 2 -21 -1z"/>
<path d="M824 225 c5 -18 0 -31 -16 -47 -12 -12 -23 -30 -23 -40 -1 -11 14 -1
47 32 57 58 62 80 17 80 -28 0 -31 -2 -25 -25z"/>
<path d="M690 195 c0 -8 -4 -15 -10 -15 -5 0 -10 -7 -10 -15 0 -11 11 -15 40
-15 41 0 47 8 30 41 -13 22 -50 26 -50 4z"/>
<path d="M650 119 c0 -17 71 -26 104 -13 32 12 15 19 -44 19 -33 0 -60 -3 -60
-6z"/>
<path d="M220 393 c0 -25 1 -26 16 -11 9 9 13 21 10 27 -13 20 -26 11 -26 -16z"/>
<path d="M275 410 c-8 -14 3 -30 21 -30 8 0 14 9 14 20 0 21 -24 28 -35 10z"/>
<path d="M340 395 c0 -14 5 -25 10 -25 6 0 10 11 10 25 0 14 -4 25 -10 25 -5
0 -10 -11 -10 -25z"/>
<path d="M187 338 c-8 -13 -18 -38 -22 -55 -5 -24 -12 -33 -26 -33 -28 0 -21
-42 9 -55 12 -5 25 -18 28 -28 8 -27 75 -67 111 -67 46 0 100 29 113 61 7 15
22 30 36 33 27 7 34 43 10 52 -8 3 -17 20 -20 38 -9 48 -34 80 -52 65 -7 -6
-22 -8 -31 -5 -15 6 -16 5 -5 -5 6 -7 12 -19 12 -27 0 -17 -37 -52 -55 -52
-25 0 -57 36 -57 64 0 15 -3 24 -6 22 -3 -3 -11 -1 -18 5 -9 8 -16 4 -27 -13z
m53 -129 c0 -20 -24 -26 -35 -9 -8 13 14 42 26 34 5 -3 9 -14 9 -25z m126 -17
c-4 -3 -11 -1 -18 6 -8 8 -8 15 3 28 13 16 14 16 17 -5 2 -13 1 -25 -2 -29z
m-33 -63 c-14 -14 -75 -8 -80 8 -3 7 10 13 34 15 43 4 63 -6 46 -23z"/>
<path d="M263 334 c-3 -9 2 -23 13 -32 15 -15 16 -15 6 -1 -7 9 -10 24 -6 33
3 9 3 16 0 16 -4 0 -9 -7 -13 -16z"/>
<path d="M306 315 c4 -8 8 -15 10 -15 2 0 4 7 4 15 0 8 -4 15 -10 15 -5 0 -7
-7 -4 -15z"/>
</g>
</svg>
