<?xml version="1.0" standalone="no"?>
<!DOCTYPE svg PUBLIC "-//W3C//DTD SVG 20010904//EN"
 "http://www.w3.org/TR/2001/REC-SVG-20010904/DTD/svg10.dtd">
<svg version="1.0" xmlns="http://www.w3.org/2000/svg"
 width="20" height="20" viewBox="0 0 100.000000 100.000000"
 preserveAspectRatio="xMidYMid meet">

<g transform="translate(0.000000,100.000000) scale(0.100000,-0.100000)"
fill="#466fff" stroke="none">
<path d="M177 986 c-62 -17 -116 -61 -147 -122 l-25 -48 0 -316 0 -316 26 -49
c32 -62 93 -110 159 -124 67 -14 553 -14 620 0 66 14 127 62 159 124 l26 49 0
316 0 316 -26 49 c-32 62 -93 110 -159 124 -74 16 -571 13 -633 -3z m547 -176
c59 -28 96 -89 96 -157 0 -56 -23 -114 -57 -145 -51 -46 -136 -60 -201 -32
-25 10 -52 13 -83 9 -65 -9 -78 9 -48 67 14 27 22 57 20 81 -5 76 39 154 104
183 44 20 122 17 169 -6z m-400 -41 c24 -19 26 -26 26 -99 0 -76 -1 -79 -31
-103 l-31 -24 21 -49 c41 -91 137 -165 155 -119 8 21 45 19 122 -6 76 -25 92
-48 73 -106 -47 -143 -310 -63 -434 132 -48 74 -68 151 -63 245 3 86 17 111
73 136 42 18 58 17 89 -7z"/>
<path d="M600 710 c0 -27 -3 -30 -30 -30 -27 0 -30 -3 -30 -30 0 -26 5 -31 30
-36 25 -5 30 -11 30 -35 0 -26 3 -29 35 -29 32 0 35 2 35 30 0 27 3 30 30 30
28 0 30 3 30 35 0 32 -2 35 -30 35 -27 0 -30 3 -30 30 0 28 -3 30 -35 30 -32
0 -35 -2 -35 -30z"/>
</g>
</svg>
