<?xml version="1.0" standalone="no"?>
<!DOCTYPE svg PUBLIC "-//W3C//DTD SVG 20010904//EN"
 "http://www.w3.org/TR/2001/REC-SVG-20010904/DTD/svg10.dtd">
<svg version="1.0" xmlns="http://www.w3.org/2000/svg"
 width="20" height="20" viewBox="0 0 100.000000 100.000000"
 preserveAspectRatio="xMidYMid meet">

<g transform="translate(0.000000,100.000000) scale(0.100000,-0.100000)"
fill="#466fff" stroke="none">
<path d="M177 986 c-62 -17 -116 -61 -147 -122 l-25 -48 0 -316 0 -316 26 -49
c32 -62 93 -110 159 -124 67 -14 553 -14 620 0 66 14 127 62 159 124 l26 49 0
316 0 316 -26 49 c-32 62 -93 110 -159 124 -74 16 -571 13 -633 -3z m357 -52
c23 -9 21 -44 -2 -44 -25 0 -31 7 -25 31 6 21 6 21 27 13z m-54 -24 c0 -11 -4
-20 -9 -20 -5 0 -16 -3 -25 -6 -12 -5 -16 0 -16 20 0 21 5 26 25 26 18 0 25
-5 25 -20z m140 -5 c0 -15 -14 -35 -25 -35 -19 0 -25 13 -18 38 4 18 9 20 24
11 10 -5 19 -11 19 -14z m-219 -6 c8 -17 8 -23 -2 -29 -18 -12 -39 -1 -39 20
0 15 5 21 27 29 1 1 7 -9 14 -20z m277 -46 c-12 -15 -18 -16 -37 -4 -12 8 -12
12 -2 25 10 12 17 13 31 3 14 -8 16 -15 8 -24z m-339 -19 c-14 -14 -17 -14
-29 0 -10 13 -10 19 0 32 12 14 15 14 29 0 14 -15 14 -17 0 -32z m226 15 c24
-7 55 -27 78 -51 30 -32 47 -41 78 -43 21 -2 56 -12 77 -22 l37 -18 0 -170
c-1 -190 -20 -379 -42 -401 -12 -11 -66 -14 -291 -14 -152 0 -283 4 -291 9 -8
5 -20 44 -27 93 -16 100 -30 424 -20 462 7 27 37 46 99 61 23 6 27 4 27 -15 0
-16 -10 -26 -40 -37 l-40 -16 0 -141 c0 -81 7 -189 17 -253 l17 -113 256 0
257 0 16 118 c10 64 17 178 17 254 l0 136 -45 15 -45 16 6 -40 c9 -52 -11
-118 -48 -163 -128 -155 -371 -66 -371 136 0 44 5 65 25 95 66 100 145 132
253 102z"/>
<path d="M447 805 c-45 -16 -83 -48 -104 -89 -18 -34 -14 -126 7 -151 12 -14
15 -14 32 2 15 13 21 14 31 4 9 -10 7 -16 -10 -31 l-23 -18 28 -18 c59 -39
164 -27 203 23 13 16 12 17 -2 5 -13 -10 -19 -9 -29 3 -20 24 3 44 30 27 17
-10 22 -9 34 11 34 53 28 122 -15 175 -12 15 -19 19 -16 10 8 -22 -15 -42 -31
-26 -9 9 -8 16 4 29 15 17 14 19 -20 35 -20 10 -39 15 -42 11 -12 -12 -5 -98
11 -120 30 -43 9 -97 -39 -97 -51 0 -73 63 -35 101 15 15 20 33 21 69 0 37 4
50 16 53 13 4 13 5 2 5 -8 1 -32 -5 -53 -13z m-28 -49 c8 -10 8 -16 -3 -25
-10 -9 -16 -8 -26 3 -12 15 -6 36 9 36 5 0 14 -6 20 -14z m-39 -106 c0 -13 -7
-20 -20 -20 -13 0 -20 7 -20 20 0 13 7 20 20 20 13 0 20 -7 20 -20z m278 -7
c-2 -10 -12 -18 -23 -18 -11 0 -21 8 -23 18 -3 13 3 17 23 17 20 0 26 -4 23
-17z m-148 -133 c0 -13 -7 -20 -20 -20 -13 0 -20 7 -20 20 0 13 7 20 20 20 13
0 20 -7 20 -20z"/>
<path d="M490 650 c0 -5 5 -10 10 -10 6 0 10 5 10 10 0 6 -4 10 -10 10 -5 0
-10 -4 -10 -10z"/>
</g>
</svg>
