<svg width="20" height="20" viewBox="0 0 20 20" fill="none" xmlns="http://www.w3.org/2000/svg">
<g clip-path="url(#clip0_719_1927)">
<mask id="mask0_719_1927" style="mask-type:luminance" maskUnits="userSpaceOnUse" x="0" y="0" width="20" height="20">
<path d="M0 0H20V20H0V0Z" fill="white"/>
</mask>
<g mask="url(#mask0_719_1927)">
<path d="M19.4737 17.3693C19.4737 17.9277 19.2519 18.4632 18.8571 18.858C18.4623 19.2528 17.9268 19.4746 17.3685 19.4746H2.63163C2.07328 19.4746 1.5378 19.2528 1.14298 18.858C0.748171 18.4632 0.526367 17.9277 0.526367 17.3693V2.6325C0.526367 2.07415 0.748171 1.53867 1.14298 1.14386C1.5378 0.749044 2.07328 0.527241 2.63163 0.527241H17.3685C17.9268 0.527241 18.4623 0.749044 18.8571 1.14386C19.2519 1.53867 19.4737 2.07415 19.4737 2.6325V17.3693Z" fill="#466FFF"/>
<path d="M3.53516 5.34709C3.53516 4.5313 4.05726 4.07446 4.75884 4.07446C5.46042 4.07446 5.98252 4.5313 5.98252 5.34709V14.616C5.98252 15.4324 5.46042 15.8887 4.75884 15.8887C4.05726 15.8887 3.53516 15.4324 3.53516 14.616V5.34709Z" fill="white"/>
<path d="M9.89854 13.537H11.547C13.6522 13.537 14.6143 11.987 14.6143 10.0285C14.6143 7.93959 13.6359 6.42222 11.3838 6.42222H9.89854V13.537ZM7.45117 5.42696C7.45117 4.6759 7.97328 4.17011 8.70749 4.17011H11.4164C15.0722 4.17011 17.1606 6.52011 17.1606 10.1427C17.1606 13.5696 14.9417 15.7891 11.5796 15.7891H8.74012C8.20117 15.7891 7.45117 15.4954 7.45117 14.5654V5.42696Z" fill="white"/>
</g>
</g>
<defs>
<clipPath id="clip0_719_1927">
<rect width="20" height="20" fill="white"/>
</clipPath>
</defs>
</svg>
