<svg width="21" height="5" viewBox="0 0 21 5" fill="none" xmlns="http://www.w3.org/2000/svg">
<path d="M2.01562 4.09375C2.90625 4.09375 3.625 3.375 3.625 2.48438C3.625 1.60938 2.90625 0.890625 2.01562 0.890625C1.14062 0.890625 0.421875 1.60938 0.421875 2.48438C0.421875 3.375 1.14062 4.09375 2.01562 4.09375ZM10.3319 4.09375C11.2225 4.09375 11.9412 3.375 11.9412 2.48438C11.9412 1.60938 11.2225 0.890625 10.3319 0.890625C9.45687 0.890625 8.73812 1.60938 8.73812 2.48438C8.73812 3.375 9.45687 4.09375 10.3319 4.09375ZM18.6481 4.09375C19.5387 4.09375 20.2575 3.375 20.2575 2.48438C20.2575 1.60938 19.5387 0.890625 18.6481 0.890625C17.7731 0.890625 17.0544 1.60938 17.0544 2.48438C17.0544 3.375 17.7731 4.09375 18.6481 4.09375Z" fill="#466FFF"/>
</svg>
