<svg width="20" height="20" viewBox="0 0 20 20" fill="none" xmlns="http://www.w3.org/2000/svg">
<path d="M13.2932 10.2727V4.47727C13.2932 2.54545 11.7169 1 9.74648 1C7.77609 1 6.19978 2.54545 6.19978 4.47727V10.2727C4.46584 12.2045 4.62347 15.1409 6.59386 16.8409C7.22438 17.3818 7.93372 17.6909 8.72188 17.9227C9.03714 18 9.43122 18 9.74648 18C12.3474 18 14.4754 15.9136 14.4754 13.3636C14.4754 12.2818 14.0813 11.1227 13.2932 10.2727ZM11.0863 14.1364C10.7711 14.6 10.2982 14.9091 9.74648 14.9091C8.87951 14.9091 8.17017 14.2136 8.17017 13.3636C8.17017 12.8227 8.48543 12.2818 8.95833 12.05V6.79545C8.95833 6.33182 9.27359 6.02273 9.74648 6.02273C10.2194 6.02273 10.5346 6.33182 10.5346 6.79545V12.05C11.3228 12.4364 11.5592 13.3636 11.0863 14.1364Z" fill="url(#paint0_linear_965_2034)"/>
<defs>
<linearGradient id="paint0_linear_965_2034" x1="9.7377" y1="1" x2="9.7377" y2="18" gradientUnits="userSpaceOnUse">
<stop stop-color="#23D2C3" stop-opacity="0.6"/>
<stop offset="1" stop-color="#01BCAD"/>
</linearGradient>
</defs>
</svg>
