<svg width="20" height="20" viewBox="0 0 20 20" fill="none" xmlns="http://www.w3.org/2000/svg">
<path d="M11.2521 10.7414L11.1669 10.8273C10.7412 11.2565 10.2304 11.514 9.63439 11.514H7.93155C6.73957 11.514 5.803 10.5697 5.803 9.36797C5.803 8.16621 6.73957 7.22197 7.93155 7.22197H8.78297L9.88982 6.10604C10.3155 5.67684 10.9115 5.41932 11.5075 5.50516C12.1035 5.50516 12.6144 5.76268 12.9549 6.19188L14.4023 7.90869L14.4875 7.82285C14.9132 7.39365 15.424 7.22197 16.02 7.22197H17.212C17.0417 6.19188 16.616 5.1618 15.8497 4.47508C14.1469 2.75828 11.5075 2.5866 9.63439 3.96004C7.4207 2.32908 4.44073 2.84412 2.90818 4.99012C1.54591 6.96445 1.71619 9.62549 3.41903 11.2565L8.0167 15.8918C8.95326 16.8361 10.4007 16.8361 11.3372 15.8918L14.0618 13.1449C13.5509 13.0591 13.1252 12.8016 12.7846 12.4582L11.2521 10.7414ZM18.1486 8.50957H16.02C15.7646 8.50957 15.5943 8.59541 15.424 8.76709L14.3172 9.79717L11.9332 7.05029C11.7629 6.87861 11.5927 6.79277 11.3372 6.79277C11.0818 6.79277 10.8264 6.87861 10.7412 7.05029L9.29382 8.50957H7.93155C7.4207 8.50957 7.08013 8.85293 7.08013 9.36797C7.08013 9.88301 7.4207 10.2264 7.93155 10.2264H9.63439C9.88982 10.2264 10.0601 10.1405 10.2304 9.96885L11.2521 8.93877L13.6361 11.6857C13.8063 11.8573 13.9766 11.9432 14.2321 11.9432C14.4875 11.9432 14.6578 11.8573 14.828 11.6857L16.2755 10.2264H18.1486C18.6594 10.2264 19 9.88301 19 9.36797C19 8.85293 18.6594 8.50957 18.1486 8.50957Z" fill="url(#paint0_linear_965_2032)"/>
<defs>
<linearGradient id="paint0_linear_965_2032" x1="10.5" y1="3" x2="10.5" y2="16.6" gradientUnits="userSpaceOnUse">
<stop stop-color="#6C4DDA" stop-opacity="0.6"/>
<stop offset="1" stop-color="#522ED2"/>
</linearGradient>
</defs>
</svg>
