<svg width="20" height="20" viewBox="0 0 20 20" fill="none" xmlns="http://www.w3.org/2000/svg">
<path fill-rule="evenodd" clip-rule="evenodd" d="M10.7668 2.00778C10.4871 1.96439 10.2109 2.10541 10.0814 2.3572C9.95225 2.60899 9.9986 2.91534 10.1968 3.1175C11.2069 4.14833 11.8305 5.5598 11.8305 7.1159C11.8305 10.2699 9.26985 12.8305 6.1159 12.8305C4.5598 12.8305 3.14833 12.2069 2.1175 11.1968C1.91534 10.9986 1.60899 10.9522 1.3572 11.0814C1.10541 11.2109 0.964392 11.4871 1.00778 11.7668C1.64054 15.8608 5.18336 19 9.4536 19C14.1706 19 18 15.1706 18 10.4536C18 6.18336 14.8608 2.64054 10.7668 2.00778Z" fill="url(#paint0_linear_965_2038)"/>
<defs>
<linearGradient id="paint0_linear_965_2038" x1="9.5" y1="2" x2="9.5" y2="19" gradientUnits="userSpaceOnUse">
<stop stop-color="#FFBF35" stop-opacity="0.6"/>
<stop offset="1" stop-color="#FFA900"/>
</linearGradient>
</defs>
</svg>
