<svg width="20" height="20" viewBox="0 0 20 20" fill="none" xmlns="http://www.w3.org/2000/svg">
<path d="M19.8123 12.6164L19.7092 12.4648L19.6239 12.6271C19.067 13.685 17.2157 14.3173 15.7476 14.3173C13.8782 14.3173 4.64843 14.0363 3.44686 13.9679C3.20933 13.9538 2.96123 13.9473 2.66602 13.9473C2.4829 13.9473 2.31286 13.9496 2.14842 13.9517C2.00559 13.9536 1.87082 13.9554 1.74419 13.9554C1.34908 13.9554 1.0242 13.8497 0.787019 13.7725C0.633316 13.7225 0.511886 13.683 0.411326 13.683C0.333792 13.683 0.270963 13.7068 0.224602 13.7539C0.163887 13.8155 0.136633 13.9112 0.13879 14.055C0.157194 15.2989 0.815814 15.3951 1.74424 15.3951C1.87174 15.3951 2.00748 15.3933 2.15137 15.3914C2.31507 15.3892 2.48435 15.387 2.66602 15.387C2.95678 15.387 3.20078 15.3934 3.43409 15.4072C4.63712 15.4757 13.8763 15.7569 15.7476 15.7569C16.6974 15.7569 17.7474 15.5047 18.5563 15.0823C19.4871 14.5962 19.9997 13.9421 19.9997 13.2404C19.9997 13.0092 19.9366 12.7992 19.8123 12.6164Z" fill="url(#paint0_linear_965_2019)"/>
<path d="M1.61991 14.03C1.7465 14.03 1.88113 14.0282 2.02392 14.0263C2.18634 14.0241 2.35435 14.0219 2.5346 14.0219C2.82365 14.0219 3.06567 14.0283 3.29664 14.0421C4.49021 14.1106 13.6576 14.3918 15.5147 14.3918C16.4574 14.3918 17.4995 14.1396 18.3022 13.717C19.2259 13.2309 19.7346 12.5768 19.7346 11.8752C19.7346 10.8577 18.5737 10.5292 17.3447 10.1812C16.6746 9.99153 15.9816 9.79539 15.3961 9.48151C15.1324 9.33983 14.7303 9.13448 14.2402 8.88907C14.241 8.87489 14.2424 8.8608 14.2424 8.84645C14.2424 8.42752 13.9016 8.08674 13.4827 8.08674C13.2946 8.08674 13.1227 8.15577 12.9899 8.26937C12.8124 8.1821 12.6305 8.09281 12.4454 8.00216C12.4288 7.5978 12.0956 7.27371 11.6873 7.27371C11.5223 7.27371 11.3699 7.32712 11.2453 7.41676C11.0793 7.33605 10.9131 7.25531 10.7473 7.17487C10.7508 7.14528 10.7531 7.11534 10.7531 7.08483C10.7531 6.66594 10.4124 6.32516 9.99348 6.32516C9.78325 6.32516 9.59278 6.41106 9.45511 6.54949C7.83579 5.76755 6.5082 5.13244 6.38924 5.07555C6.31677 5.02611 6.23598 5 6.15487 5C6.02411 5 5.89841 5.06358 5.8185 5.1703L4.92402 6.36981C4.80417 6.53214 4.75711 6.69575 4.7841 6.85623C4.83755 7.17421 5.16556 7.39946 5.42911 7.58041C5.53403 7.65249 5.69007 7.75961 5.71512 7.8116C5.71477 7.81196 5.71437 7.81235 5.71402 7.81271C5.56824 7.95522 5.10035 8.16735 4.40867 8.16735C4.00885 8.16735 3.58754 8.09096 3.19027 7.94633C2.70416 7.76934 2.5033 7.2837 2.34193 6.89348C2.20699 6.5671 2.0904 6.28527 1.83138 6.28527C1.63488 6.28527 1.40752 6.46156 1.07 6.87613C-0.0772457 8.33435 -0.0236193 10.5624 0.0155659 12.1893C0.0197486 12.3635 0.0237992 12.5309 0.0261327 12.6898C0.0443604 13.9339 0.698181 14.03 1.61991 14.03ZM11.2354 9.50969C11.2354 9.50969 11.3825 9.36404 11.5644 9.41851C11.7227 9.46588 12.097 9.56671 12.326 9.62359C12.5218 9.67224 12.345 9.82616 12.345 9.82616L9.37224 12.5472C9.36987 12.5489 9.24897 12.6592 9.0655 12.6592C8.76932 12.6592 8.19515 12.6569 7.96118 12.6569C7.76671 12.6569 7.92807 12.4928 7.92807 12.4928C7.92807 12.4928 11.235 9.50969 11.2354 9.50969ZM8.97189 8.86745C8.97269 8.86674 9.20133 8.64123 9.47664 8.72836C9.61621 8.77252 9.94378 8.85384 10.1527 8.91231C10.3314 8.96228 10.1419 9.14659 10.1418 9.14676L6.46197 12.483C6.45942 12.4849 6.37431 12.6387 6.08751 12.6387C5.76386 12.6387 5.14627 12.6535 4.8936 12.6535C4.75077 12.6535 4.87775 12.4999 4.87761 12.5L8.97189 8.86745Z" fill="url(#paint1_linear_965_2019)"/>
<defs>
<linearGradient id="paint0_linear_965_2019" x1="10.0692" y1="12.4648" x2="10.0692" y2="15.7569" gradientUnits="userSpaceOnUse">
<stop stop-color="#3888FF" stop-opacity="0.6"/>
<stop offset="1" stop-color="#1882FF"/>
</linearGradient>
<linearGradient id="paint1_linear_965_2019" x1="9.86729" y1="5" x2="9.86729" y2="14.3918" gradientUnits="userSpaceOnUse">
<stop stop-color="#3888FF" stop-opacity="0.6"/>
<stop offset="1" stop-color="#1882FF"/>
</linearGradient>
</defs>
</svg>
