<svg width="18" height="20" viewBox="0 0 18 20" fill="none" xmlns="http://www.w3.org/2000/svg">
<path d="M14.061 2.90273C13.1079 1.94922 11.561 1.94922 10.6079 2.90273L3.42041 10.0902C1.77627 11.7348 1.77627 14.3988 3.42041 16.0434C5.06494 17.6879 7.729 17.6879 9.37354 16.0434L15.311 10.1059C15.7368 9.68008 16.4321 9.68008 16.8579 10.1059C17.2837 10.5316 17.2837 11.227 16.8579 11.6527L10.9204 17.5902C8.42041 20.0902 4.37354 20.0902 1.87354 17.5902C-0.624512 15.0902 -0.624512 11.0434 1.87354 8.54336L9.06104 1.35586C10.8696 -0.451953 13.7993 -0.451953 15.6079 1.35586C17.4165 3.16367 17.4165 6.09414 15.6079 7.90273L8.73291 14.7777C7.61572 15.8949 5.80322 15.8949 4.68604 14.7777C3.56846 13.6605 3.56846 11.848 4.68604 10.7309L10.311 5.10586C10.7368 4.68008 11.4321 4.68008 11.8579 5.10586C12.2837 5.53164 12.2837 6.22695 11.8579 6.65273L6.23291 12.2777C5.97119 12.5395 5.97119 12.9691 6.23291 13.2309C6.49463 13.4926 6.92432 13.4926 7.18604 13.2309L14.061 6.35586C15.0142 5.40273 15.0142 3.85586 14.061 2.90273Z" fill="white"/>
</svg>
