<svg width="25" height="20" viewBox="0 0 25 20" fill="none" xmlns="http://www.w3.org/2000/svg">
<g clip-path="url(#clip0_1184_17076)">
<path d="M2.35163 17.531C0.145811 15.3239 0.145811 11.7458 2.35163 9.54268L6.73796 5.1208C8.90983 2.94932 12.5192 2.94932 14.6911 5.1208C16.6442 7.07393 16.9333 10.1872 15.3278 12.4333L15.2848 12.4958C14.8825 13.0544 14.1012 13.1872 13.5426 12.7849C12.9801 12.3825 12.8473 11.6013 13.2497 11.0427L13.2926 10.9802C14.1872 9.72627 14.0466 8.01143 12.9567 6.92158C11.7301 5.69502 9.73405 5.69502 8.50358 6.92158L4.12077 11.3083C2.88991 12.5036 2.88991 14.531 4.12077 15.7614C5.20671 16.8513 6.92546 16.9919 8.17546 16.0974L8.23796 16.0192C8.80046 15.6521 9.58171 15.781 9.98015 16.3435C10.3825 16.906 10.2536 17.6872 9.69108 18.0896L9.62858 18.1325C7.34733 19.738 4.30437 19.4802 2.35163 17.531Z" fill="#466FFF"/>
<path d="M22.6486 2.47106C24.8557 4.67653 24.8557 8.25465 22.6486 10.4578L18.2619 14.8445C16.0549 17.0515 12.4807 17.0515 10.2736 14.8445C8.32051 12.8914 8.06661 9.81325 9.67208 7.56715L9.71505 7.50465C10.0822 6.94606 10.8635 6.81325 11.4572 7.21559C12.0197 7.58278 12.1525 8.36403 11.7502 8.95778L11.7072 9.02028C10.8127 10.239 10.9533 11.989 12.0432 13.0789C13.2697 14.3054 15.2658 14.3054 16.4963 13.0789L20.8791 8.69215C22.1096 7.46169 22.1096 5.43434 20.8791 4.23903C19.7932 3.15036 18.0744 3.00817 16.8244 3.90309L16.7619 3.94606C16.1994 4.3484 15.4182 4.18434 15.0197 3.65622C14.6174 3.0945 14.7463 2.31364 15.3088 1.91247L15.3713 1.86872C17.6174 0.263678 20.6955 0.518327 22.6486 2.47106Z" fill="#466FFF"/>
</g>
<defs>
<clipPath id="clip0_1184_17076">
<rect width="25" height="20" fill="white"/>
</clipPath>
</defs>
</svg>
