<svg width="20" height="20" viewBox="0 0 20 20" fill="none" xmlns="http://www.w3.org/2000/svg">
<g clip-path="url(#clip0_814_3033)">
<path d="M19.3742 1.875V7.5C19.3742 8.19102 18.8145 8.75 18.1242 8.75H13.1242C12.434 8.75 11.8742 8.19102 11.8742 7.5C11.8742 6.80898 12.434 6.25 13.1242 6.25H14.8578C13.761 4.70703 11.9719 3.75 9.99924 3.75C7.39768 3.75 5.11252 5.41016 4.31564 7.88281C4.10471 8.53906 3.4008 8.90234 2.74104 8.6875C2.08439 8.47633 1.72346 7.7707 1.93596 7.11406C3.06916 3.60703 6.30783 1.25 9.99924 1.25C12.7867 1.25 15.3156 2.59844 16.8742 4.76914V1.875C16.8742 1.18398 17.434 0.625 18.1242 0.625C18.8145 0.625 19.3742 1.18398 19.3742 1.875Z" fill="#466FFF"/>
<path d="M18.0625 12.8828C16.9297 16.3945 13.6875 18.75 9.96484 18.75C7.21094 18.75 4.68359 17.4023 3.125 15.2305V18.125C3.125 18.816 2.56523 19.375 1.875 19.375C1.18477 19.375 0.625 18.816 0.625 18.125V12.5C0.625 11.809 1.18477 11.25 1.875 11.25H6.875C7.56523 11.25 8.125 11.809 8.125 12.5C8.125 13.191 7.56523 13.75 6.875 13.75H5.14062C6.23828 15.293 8.02734 16.25 10 16.25C12.6008 16.25 14.8867 14.5887 15.6836 12.1172C15.8954 11.4617 16.5969 11.1004 17.2578 11.3129C17.9141 11.4883 18.2773 12.2266 18.0625 12.8828Z" fill="#466FFF"/>
</g>
<defs>
<clipPath id="clip0_814_3033">
<rect width="20" height="20" fill="white"/>
</clipPath>
</defs>
</svg>
