<svg width="30" height="30" viewBox="0 0 30 30" fill="none" xmlns="http://www.w3.org/2000/svg">
<g clip-path="url(#clip0_1349_2630)">
<path d="M13.2866 28.2587C10.495 24.9 4.28613 16.7596 4.28613 12.1872C4.28613 6.63965 8.88314 2.14258 14.554 2.14258C20.2227 2.14258 24.8218 6.63965 24.8218 12.1872C24.8218 16.7596 18.5649 24.9 15.8214 28.2587C15.1636 29.0591 13.9443 29.0591 13.2866 28.2587Z" fill="#466FFF"/>
</g>
<path d="M19.2209 12.4918C19.2209 14.8445 17.2698 16.7532 14.8648 16.7532C12.4599 16.7532 10.5088 14.8445 10.5088 12.4918C10.5088 10.1392 12.4599 8.23047 14.8648 8.23047C17.2698 8.23047 19.2209 10.1392 19.2209 12.4918Z" fill="white"/>
<defs>
<clipPath id="clip0_1349_2630">
<rect width="20.5357" height="26.7857" fill="white" transform="translate(4.28613 2.14258)"/>
</clipPath>
</defs>
</svg>
