<svg width="25" height="28" viewBox="0 0 25 28" fill="none" xmlns="http://www.w3.org/2000/svg">
<g clip-path="url(#clip0_1028_5643)">
<path d="M12.4992 6.125C13.2414 6.125 13.8384 6.71016 13.8384 7.4375V12.6875C13.8384 13.4148 13.2414 14 12.4992 14C11.757 14 11.1599 13.4148 11.1599 12.6875V7.4375C11.1599 6.71016 11.757 6.125 12.4992 6.125ZM14.2849 17.5C14.2849 18.468 13.4869 19.25 12.4992 19.25C11.5114 19.25 10.7134 18.468 10.7134 17.5C10.7134 16.532 11.5114 15.75 12.4992 15.75C13.4869 15.75 14.2849 16.532 14.2849 17.5ZM12.4992 28C11.5505 28 10.6409 27.6336 9.97126 26.9773C9.30162 26.3211 8.92773 25.3805 8.92773 24.5H16.0706C16.0706 25.3805 15.6967 26.3211 15.0271 26.9773C14.3574 27.6336 13.3976 28 12.4992 28Z" fill="#466FFF"/>
<path d="M12.5006 6.125C13.2427 6.125 13.8398 6.71016 13.8398 7.4375V12.6875C13.8398 13.4148 13.2427 14 12.5006 14C11.7584 14 11.1613 13.4148 11.1613 12.6875V7.4375C11.1613 6.71016 11.7584 6.125 12.5006 6.125ZM14.2863 17.5C14.2863 18.468 13.4883 19.25 12.5006 19.25C11.5128 19.25 10.7148 18.468 10.7148 17.5C10.7148 16.532 11.5128 15.75 12.5006 15.75C13.4883 15.75 14.2863 16.532 14.2863 17.5Z" fill="#466FFF"/>
<path d="M12.5006 6.125C13.2427 6.125 13.8398 6.71016 13.8398 7.4375V12.6875C13.8398 13.4148 13.2427 14 12.5006 14C11.7584 14 11.1613 13.4148 11.1613 12.6875V7.4375C11.1613 6.71016 11.7584 6.125 12.5006 6.125ZM14.2863 17.5C14.2863 18.468 13.4883 19.25 12.5006 19.25C11.5128 19.25 10.7148 18.468 10.7148 17.5C10.7148 16.532 11.5128 15.75 12.5006 15.75C13.4883 15.75 14.2863 16.532 14.2863 17.5Z" fill="white"/>
<path d="M14.2857 1.75V2.8C18.3594 3.61102 21.4286 7.14219 21.4286 11.375V12.4031C21.4286 14.9789 22.394 17.4562 24.135 19.3812L24.548 19.8352C25.0167 20.3547 25.1339 21.0875 24.8437 21.7164C24.5536 22.3453 23.9174 22.75 23.2143 22.75H1.7857C1.08258 22.75 0.444797 22.3453 0.156739 21.7164C-0.131319 21.0875 -0.0161016 20.3547 0.451103 19.8352L0.864942 19.3812C2.60825 17.4562 3.57142 14.9789 3.57142 12.4031V11.375C3.57142 7.14219 6.59039 3.61102 10.7143 2.8V1.75C10.7143 0.783672 11.5123 0 12.5 0C13.4877 0 14.2857 0.783672 14.2857 1.75ZM12.5 15.75C11.5123 15.75 10.7143 16.532 10.7143 17.5C10.7143 18.468 11.5123 19.25 12.5 19.25C13.4877 19.25 14.2857 18.468 14.2857 17.5C14.2857 16.532 13.4877 15.75 12.5 15.75ZM13.8393 7.4375C13.8393 6.71016 13.2422 6.125 12.5 6.125C11.7578 6.125 11.1607 6.71016 11.1607 7.4375V12.6875C11.1607 13.4148 11.7578 14 12.5 14C13.2422 14 13.8393 13.4148 13.8393 12.6875V7.4375Z" fill="#466FFF"/>
</g>
<defs>
<clipPath id="clip0_1028_5643">
<rect width="25" height="28" fill="white"/>
</clipPath>
</defs>
</svg>
