<svg width="20" height="20" viewBox="0 0 20 20" fill="none" xmlns="http://www.w3.org/2000/svg">
<path d="M15.061 2.90273C14.1079 1.94922 12.561 1.94922 11.6079 2.90273L4.42041 10.0902C2.77627 11.7348 2.77627 14.3988 4.42041 16.0434C6.06494 17.6879 8.729 17.6879 10.3735 16.0434L16.311 10.1059C16.7368 9.68008 17.4321 9.68008 17.8579 10.1059C18.2837 10.5316 18.2837 11.227 17.8579 11.6527L11.9204 17.5902C9.42041 20.0902 5.37354 20.0902 2.87354 17.5902C0.375488 15.0902 0.375488 11.0434 2.87354 8.54336L10.061 1.35586C11.8696 -0.451953 14.7993 -0.451953 16.6079 1.35586C18.4165 3.16367 18.4165 6.09414 16.6079 7.90273L9.73291 14.7777C8.61572 15.8949 6.80322 15.8949 5.68604 14.7777C4.56846 13.6605 4.56846 11.848 5.68604 10.7309L11.311 5.10586C11.7368 4.68008 12.4321 4.68008 12.8579 5.10586C13.2837 5.53164 13.2837 6.22695 12.8579 6.65273L7.23291 12.2777C6.97119 12.5395 6.97119 12.9691 7.23291 13.2309C7.49463 13.4926 7.92432 13.4926 8.18604 13.2309L15.061 6.35586C16.0142 5.40273 16.0142 3.85586 15.061 2.90273Z" fill="#4E4B66"/>
</svg>
