<svg width="24" height="24" viewBox="0 0 24 24" fill="none" xmlns="http://www.w3.org/2000/svg">
<path d="M8.4 11.6C11.0512 11.6 13.2 9.45088 13.2 6.8C13.2 4.14913 11.0512 2 8.4 2C5.74875 2 3.6 4.14913 3.6 6.8C3.6 9.45088 5.74875 11.6 8.4 11.6ZM10.3012 13.4H6.49875C2.90887 13.4 0 16.31 0 19.8988C0 20.6187 0.582 21.2 1.29975 21.2H15.4987C16.2187 21.2 16.8 20.6187 16.8 19.8988C16.8 16.31 13.89 13.4 10.3012 13.4Z" fill="#466FFF"/>
<path d="M17.9657 13.9992H15.1963C16.9195 15.413 17.9995 17.528 17.9995 19.898C17.9995 20.378 17.857 20.8205 17.6245 21.1992H22.7995C23.4632 21.1992 23.9995 20.6592 23.9995 19.9655C23.9995 16.6842 21.3145 13.9992 17.9657 13.9992ZM16.1995 11.5992C18.5207 11.5992 20.3995 9.72047 20.3995 7.39922C20.3995 5.07797 18.5207 3.19922 16.1995 3.19922C15.2578 3.19922 14.398 3.52003 13.6975 4.04334C14.1295 4.87284 14.3995 5.80172 14.3995 6.79922C14.3995 8.13122 13.9521 9.35447 13.2148 10.3508C13.9757 11.1192 15.0295 11.5992 16.1995 11.5992Z" fill="#466FFF"/>
</svg>
