<svg width="25" height="25" viewBox="0 0 25 25" fill="none" xmlns="http://www.w3.org/2000/svg">
<g clip-path="url(#clip0_2472_3423)">
<path d="M11.1289 15.5L8.74996 15.5C5.2984 15.5 2.49996 18.298 2.49996 21.7148C2.46481 22.4414 3.05973 23 3.71481 23L21.2148 22.9998C21.2143 22.9998 21.2153 22.9998 21.2148 22.9998L20.6629 22.9998L11.1289 15.5ZM24.6406 21.3242L14.8945 13.6875C16.7984 12.8242 18.123 10.8711 18.123 8.625C18.123 5.51836 15.6046 3.03516 12.5332 3.03516C9.81285 3.03516 7.56051 4.97148 7.04098 7.53906L1.51598 3.19957C1.3441 3.06531 1.1402 3 0.938634 3C0.660509 3 0.384532 3.12328 0.200235 3.35887C-0.11957 3.76668 -0.0487883 4.35613 0.358907 4.67527L23.4843 22.8008C23.8945 23.1212 24.4828 23.048 24.8004 22.6415C25.1211 22.2344 25.0468 21.6445 24.6406 21.3242Z" fill="#466FFF"/>
</g>
<defs>
<clipPath id="clip0_2472_3423">
<rect width="25" height="25" fill="white"/>
</clipPath>
</defs>
</svg>
