<svg width="20" height="20" viewBox="0 0 20 20" fill="none" xmlns="http://www.w3.org/2000/svg">
<path d="M10 1.25C4.41016 1.25 0.178242 5.90234 0 11.25L0.000164062 15.6211C0.000164062 15.6538 0.0138086 15.6844 0.0186133 15.7158C0.115977 17.4063 1.50352 18.75 3.21719 18.75C4.20313 18.75 5 17.9531 5 16.9687V11.7891C5 10.8008 4.19922 10 3.21289 10C2.76055 10 2.33164 10.0938 1.94141 10.2617C2.43086 6.24609 5.85547 3.13047 10 3.13008C14.1445 3.13061 17.5703 6.24688 18.0586 10.2629C17.668 10.0938 17.2383 10 16.7891 10C15.8008 10 15 10.8008 15 11.7891V16.9687C15 17.9531 15.7969 18.75 16.7813 18.75C18.4949 18.75 19.8824 17.4066 19.9797 15.7172C19.9845 15.6858 19.9981 15.6552 19.9981 15.6225L20 11.2461C19.8203 5.89844 15.5898 1.25 10 1.25ZM3.125 11.8789V16.8711C2.42773 16.8236 1.875 16.2414 1.875 15.532V13.2121C1.875 12.5039 2.42812 11.9219 3.125 11.8789ZM16.875 16.8711V11.8789C17.5719 11.9244 18.125 12.5059 18.125 13.2141V15.534C18.125 16.2422 17.5703 16.8242 16.875 16.8711Z" fill="#4E4B66"/>
</svg>
