<svg width="30" height="30" viewBox="0 0 30 30" fill="none" xmlns="http://www.w3.org/2000/svg">
<path d="M24.5076 16.7026C24.5637 16.2734 24.5901 15.8406 24.5865 15.4075C24.5849 15.0207 24.5584 14.6344 24.5076 14.2512L26.5687 12.3201C26.7174 12.1742 26.8242 11.9894 26.8778 11.7855C26.9314 11.5817 26.9295 11.3666 26.8725 11.1637C26.6663 10.5864 26.4179 10.026 26.1293 9.48711L25.9041 9.08235C25.5847 8.54997 25.2311 8.04004 24.8456 7.55599C24.7059 7.3993 24.5267 7.28513 24.3281 7.22597C24.1294 7.16682 23.9189 7.165 23.7193 7.22068L21.0613 8.08793C20.4106 7.58637 19.7037 7.16706 18.9554 6.83907L18.3585 4.04078C18.3093 3.82645 18.2017 3.63099 18.048 3.47736C17.8944 3.32373 17.7012 3.21832 17.4912 3.17353C16.1492 2.94216 14.7788 2.94216 13.4367 3.17353C13.2267 3.21832 13.0335 3.32373 12.8799 3.47736C12.7263 3.63099 12.6186 3.82645 12.5695 4.04078L11.9725 6.83907C11.2204 7.15917 10.5125 7.57904 9.86664 8.08793L7.20862 7.22068C7.009 7.165 6.79825 7.16682 6.59958 7.22597C6.40092 7.28513 6.22201 7.3993 6.08239 7.55599C5.6932 8.03718 5.33941 8.54737 5.0238 9.08235L4.79861 9.48711C4.50637 10.0257 4.25421 10.5861 4.04412 11.1637C3.98715 11.3666 3.98529 11.5817 4.03889 11.7855C4.0925 11.9894 4.19927 12.1742 4.34795 12.3201L6.40904 14.2512C6.36035 14.6656 6.33396 15.0825 6.33012 15.5C6.33358 15.9174 6.35998 16.3344 6.40904 16.7488L4.34795 18.6799C4.19927 18.8257 4.0925 19.0106 4.03889 19.2145C3.98529 19.4183 3.98715 19.6333 4.04412 19.8362C4.25421 20.4138 4.50637 20.9743 4.79861 21.5129L5.0238 21.9176C5.33941 22.4526 5.6932 22.9628 6.08239 23.444C6.21704 23.6076 6.39591 23.7267 6.59628 23.7864C6.79666 23.846 7.0096 23.8436 7.20862 23.7793L9.86664 22.9121C10.5152 23.4168 11.2226 23.8364 11.9725 24.1609L12.5695 26.9592C12.6186 27.1735 12.7263 27.369 12.8799 27.5226C13.0335 27.6763 13.2267 27.7817 13.4367 27.8265C14.7788 28.0578 16.1492 28.0578 17.4912 27.8265C17.7012 27.7817 17.8944 27.6763 18.048 27.5226C18.2017 27.369 18.3093 27.1735 18.3585 26.9592L18.9554 24.1609C19.7015 23.8286 20.408 23.4095 21.0613 22.9121L23.7193 23.7793C23.9189 23.835 24.1294 23.8332 24.3281 23.774C24.5267 23.7149 24.7059 23.6007 24.8456 23.444C25.2311 22.96 25.5847 22.45 25.9041 21.9176L26.1293 21.5129C26.4179 20.974 26.6663 20.4135 26.8725 19.8362C26.9295 19.6333 26.9314 19.4183 26.8778 19.2145C26.8242 19.0106 26.7174 18.8257 26.5687 18.6799L24.5076 16.7026ZM15.4189 18.4602C14.8397 18.4602 14.2738 18.2838 13.7922 17.9535C13.3107 17.6231 12.9352 17.1536 12.7136 16.6043C12.4919 16.0549 12.434 15.4504 12.5469 14.8672C12.6599 14.284 12.9389 13.7483 13.3484 13.3278C13.758 12.9074 14.2795 12.621 14.8475 12.505C15.4155 12.389 16.0045 12.4486 16.5396 12.6761C17.0747 12.9037 17.5319 13.2891 17.8536 13.7835C18.1754 14.2779 18.3472 14.8591 18.3472 15.4537C18.3472 16.2511 18.0387 17.0158 17.4896 17.5796C16.9404 18.1435 16.1955 18.4602 15.4189 18.4602Z" fill="#466FFF"/>
</svg>
