<svg width="25" height="25" viewBox="0 0 25 25" fill="none" xmlns="http://www.w3.org/2000/svg">
<path d="M6.31062 4.56091C6.80896 5.22153 6.76104 6.20202 6.10938 6.75133C4.25021 8.32147 3.06667 10.6888 3.06667 13.3333C3.06667 18.0583 6.8425 21.8889 11.5 21.8889C16.1575 21.8889 19.9333 18.0583 19.9333 13.3333C19.9333 10.6888 18.7498 8.32147 16.8906 6.75133C16.239 6.20202 16.1479 5.22153 16.6894 4.56091C17.2308 3.90028 18.1987 3.81035 18.8504 4.35965C21.3804 6.49855 23 9.72634 23 13.3333C23 19.7791 17.849 25 11.5 25C5.15104 25 0 19.7791 0 13.3333C0 9.72634 1.61719 6.49855 4.14958 4.35965C4.80125 3.81035 5.76917 3.90028 6.31062 4.56091Z" fill="#466FFF"/>
<path d="M11.5 0C12.3297 0 13 0.597083 13 1.33333V10.6667C13 11.4042 12.3297 12 11.5 12C10.6703 12 10 11.4042 10 10.6667V1.33333C10 0.597083 10.6703 0 11.5 0Z" fill="#466FFF"/>
</svg>
