<svg width="30" height="30" viewBox="0 0 30 30" fill="none" xmlns="http://www.w3.org/2000/svg">
<path d="M28.4975 14.1581L16.1268 3.3811C15.8444 3.13539 15.4821 3 15.1074 3C14.7327 3 14.3707 3.13539 14.0882 3.3811L1.70757 14.1581C1.5223 14.2771 1.36457 14.4342 1.24532 14.6191C1.12606 14.8039 1.04794 15.0121 1.01613 15.2296C0.984318 15.4471 0.9997 15.669 1.06105 15.8801C1.12239 16.0913 1.22832 16.2868 1.37181 16.4537C1.51529 16.6205 1.69298 16.7546 1.89281 16.8471C2.09265 16.9396 2.30983 16.9883 2.53012 16.9899C2.7504 16.9915 2.96869 16.9459 3.16985 16.8563C3.371 16.7667 3.55056 16.6351 3.69644 16.4704L15.0528 6.54674L26.4091 16.4704C26.719 16.7387 27.1221 16.8745 27.5315 16.8485C27.9409 16.8225 28.3236 16.6368 28.5968 16.3314C28.7333 16.1822 28.8392 16.0077 28.9081 15.8177C28.977 15.6277 29.0076 15.426 28.9984 15.2242C28.9892 15.0224 28.9401 14.8244 28.8542 14.6415C28.7682 14.4586 28.6471 14.2943 28.4975 14.1581Z" fill="#E3E3E3"/>
<path d="M14.8295 5.95703L4 15.3845V23.9188C4 24.3236 4.0802 24.7245 4.23574 25.0984C4.39128 25.4722 4.61923 25.8118 4.90655 26.0976C5.19386 26.3834 5.5348 26.6098 5.90996 26.7638C6.28513 26.9178 6.68713 26.9964 7.09279 26.9951H22.5859C22.9916 26.9964 23.3936 26.9178 23.7687 26.7638C24.1439 26.6098 24.4851 26.3834 24.7724 26.0976C25.0597 25.8118 25.2876 25.4722 25.4432 25.0984C25.5987 24.7245 25.6787 24.3236 25.6787 23.9188V15.3845L14.8295 5.95703Z" fill="#E3E3E3"/>
<path d="M13.8196 17.9958H16.7532C17.2385 17.9958 17.7039 18.1911 18.047 18.5386C18.3902 18.8862 18.583 19.3576 18.583 19.8491V27.0002H11.9998V19.8491C11.9998 19.3593 12.1912 18.8894 12.5322 18.5422C12.8732 18.1949 13.3361 17.9985 13.8196 17.9958Z" fill="white"/>
</svg>
