<svg width="20" height="21" viewBox="0 0 20 21" fill="none" xmlns="http://www.w3.org/2000/svg">
<path d="M5.82422 3.43359L5.41797 4.65234H2.5C1.12109 4.65234 0 5.77344 0 7.15234V17.1523C0 18.5312 1.12109 19.6523 2.5 19.6523H17.5C18.8789 19.6523 20 18.5312 20 17.1523V7.15234C20 5.77344 18.8789 4.65234 17.5 4.65234H14.582L14.1758 3.43359C13.9219 2.66797 13.207 2.15234 12.3984 2.15234H7.60156C6.79297 2.15234 6.07812 2.66797 5.82422 3.43359ZM10 15.9023C7.92969 15.9023 6.25 14.2227 6.25 12.1523C6.25 10.082 7.92969 8.40234 10 8.40234C12.0703 8.40234 13.75 10.082 13.75 12.1523C13.75 14.2227 12.0703 15.9023 10 15.9023Z" fill="white"/>
</svg>
