<svg width="25" height="25" viewBox="0 0 25 25" fill="none" xmlns="http://www.w3.org/2000/svg">
<path fill-rule="evenodd" clip-rule="evenodd" d="M20.3125 6.25C20.3125 5.38721 21.0122 4.6875 21.875 4.6875C22.7393 4.6875 23.4375 5.38574 23.4375 6.25V16.4062C23.4375 21.145 19.5825 25 14.8438 25H13.0029C10.3955 25 7.93945 23.9844 6.09473 22.1377L0.572266 16.6152C0.190723 16.2339 0 15.7339 0 15.2344C0 14.1943 0.837402 13.2812 1.95312 13.2812C2.45264 13.2812 2.95264 13.4717 3.33398 13.8525L6.25 16.7676V3.125C6.25 2.26221 6.94971 1.5625 7.8125 1.5625C8.67529 1.5625 9.375 2.26221 9.375 3.125L9.37988 11.7188C9.37988 12.1484 9.72656 12.5 10.1562 12.5C10.5859 12.5 10.9424 12.1484 10.9411 11.7188L10.9375 1.5625C10.9375 0.699707 11.6372 0 12.5 0C13.3628 0 14.0625 0.699707 14.0625 1.5625V11.7188C14.0625 12.1484 14.4125 12.5 14.8437 12.5C15.2749 12.5 15.6274 12.1502 15.6274 11.7188L15.625 3.125C15.625 2.26221 16.3247 1.5625 17.1875 1.5625C18.0503 1.5625 18.75 2.26221 18.75 3.125L18.7534 11.7188C18.7534 12.1502 19.1016 12.5 19.5312 12.5C19.9609 12.5 20.3125 12.1484 20.3125 11.7188V6.25Z" fill="#466FFF"/>
</svg>
