<svg width="25" height="25" viewBox="0 0 25 25" fill="none" xmlns="http://www.w3.org/2000/svg">
<path fill-rule="evenodd" clip-rule="evenodd" d="M8.23071 1L8.23071 4H7C5.89543 4 5 4.89543 5 6V23C5 24.1046 5.89543 25 7 25H17C18.1046 25 19 24.1046 19 23L19 6C19 4.89543 18.1046 4 17 4L15.7692 4V1H8.23071Z" fill="white" fill-opacity="0.5"/>
<path d="M9.1543 23C8.04973 23 7.1543 22.1046 7.1543 21L7.1543 11C7.1543 9.89543 8.04973 9 9.1543 9L14.8466 9C15.9512 9 16.8466 9.89543 16.8466 11L16.8466 21C16.8466 22.1046 15.9512 23 14.8466 23L9.1543 23Z" fill="white"/>
</svg>
