<svg width="20" height="20" viewBox="0 0 20 20" fill="none" xmlns="http://www.w3.org/2000/svg">
<path d="M9.083 2.23009C8.5305 2.95921 4 9.7644 4 12.9239C4 16.3265 6.431 19 9.525 19C12.619 19 15.05 16.3265 15.05 12.9239C15.05 9.7644 10.5195 2.95921 9.967 2.23009C9.746 1.98704 9.4145 1.86552 9.083 2.23009ZM9.525 16.5696C7.6465 16.5696 6.21 14.9898 6.21 12.9239C6.21 12.5594 6.431 12.3163 6.7625 12.3163C7.094 12.3163 7.315 12.5594 7.315 12.9239C7.315 14.2607 8.3095 15.3544 9.525 15.3544C9.8565 15.3544 10.0775 15.5974 10.0775 15.962C10.0775 16.3265 9.8565 16.5696 9.525 16.5696Z" fill="url(#paint0_linear_965_2036)"/>
<defs>
<linearGradient id="paint0_linear_965_2036" x1="9.525" y1="2" x2="9.525" y2="19" gradientUnits="userSpaceOnUse">
<stop stop-color="#FF4141" stop-opacity="0.5"/>
<stop offset="1" stop-color="#EB2323"/>
</linearGradient>
</defs>
</svg>
