<svg width="25" height="25" viewBox="0 0 25 25" fill="none" xmlns="http://www.w3.org/2000/svg">
<g clip-path="url(#clip0_1539_21402)">
<path d="M12.5 7.03125C9.47754 7.03125 7.03125 9.47754 7.03125 12.5C7.03125 15.5205 9.47949 17.9688 12.5 17.9688C15.5205 17.9688 17.9688 15.5205 17.9688 12.5C17.9688 9.47754 15.5225 7.03125 12.5 7.03125Z" fill="#466FFF"/>
<path d="M5.31738 3.66064C4.86113 3.20288 4.11816 3.20288 3.66016 3.66064C3.20215 4.11841 3.20239 4.85986 3.66016 5.31787L5.86963 7.52881C6.09775 7.75771 6.39844 7.87212 6.69824 7.87212C6.99805 7.87212 7.2998 7.75879 7.5293 7.5293C7.98706 7.07153 7.98706 6.33008 7.5293 5.87256L5.31738 3.66064ZM12.5 0C11.8555 0 11.3281 0.524902 11.3281 1.17188V4.29688C11.3281 4.94629 11.8555 5.46875 12.5 5.46875C13.1445 5.46875 13.6719 4.94385 13.6719 4.29688V1.17188C13.6719 0.524902 13.1494 0 12.5 0ZM5.46875 12.5C5.46875 11.853 4.94385 11.3281 4.29688 11.3281H1.17188C0.524902 11.3281 0 11.8555 0 12.5C0 13.1445 0.524902 13.6719 1.17188 13.6719H4.29688C4.94629 13.6719 5.46875 13.1494 5.46875 12.5ZM18.3008 7.87109C18.6006 7.87109 18.9014 7.75664 19.1294 7.52778L21.3389 5.31685C21.7966 4.85908 21.7966 4.11763 21.3389 3.65962C20.8811 3.20161 20.1382 3.20186 19.6816 3.65962L17.4722 5.87056C17.0144 6.32832 17.0144 7.06978 17.4722 7.52729C17.7002 7.75879 18.0029 7.87109 18.3008 7.87109ZM12.5 19.5312C11.853 19.5312 11.3281 20.0562 11.3281 20.7031V23.8281C11.3281 24.4775 11.8555 25 12.5 25C13.1445 25 13.6719 24.4751 13.6719 23.8281V20.7031C13.6719 20.0586 13.1494 19.5312 12.5 19.5312ZM5.86914 17.4707L3.65967 19.6816C3.2019 20.1394 3.2019 20.8809 3.65967 21.3389C3.88857 21.5678 4.18848 21.6822 4.48828 21.6822C4.78809 21.6822 5.08887 21.5677 5.31689 21.3389L7.52637 19.1279C7.98413 18.6702 7.98413 17.9287 7.52637 17.4712C7.0686 17.0137 6.32812 17.0117 5.86914 17.4707ZM23.8281 11.3281H20.7031C20.0562 11.3281 19.5312 11.853 19.5312 12.5C19.5312 13.147 20.0562 13.6719 20.7031 13.6719H23.8281C24.4775 13.6719 25 13.1494 25 12.5C25 11.8506 24.4775 11.3281 23.8281 11.3281ZM19.1309 17.4707C18.6746 17.0129 17.9316 17.0131 17.4736 17.4709C17.0156 17.9286 17.0159 18.6701 17.4736 19.1276L19.6831 21.3385C19.9112 21.5674 20.2119 21.6818 20.5117 21.6818C20.8115 21.6818 21.1113 21.5674 21.3403 21.3385C21.7981 20.8808 21.7981 20.1393 21.3403 19.6813L19.1309 17.4707Z" fill="#466FFF"/>
</g>
<defs>
<clipPath id="clip0_1539_21402">
<rect width="25" height="25" fill="white"/>
</clipPath>
</defs>
</svg>
