<svg width="15" height="15" viewBox="0 0 15 15" fill="none" xmlns="http://www.w3.org/2000/svg">
<g clip-path="url(#clip0_1045_17770)">
<path d="M3.8125 0.9375C3.8125 0.419824 4.23145 0 4.75 0C5.26855 0 5.6875 0.419824 5.6875 0.9375V1.875H9.4375V0.9375C9.4375 0.419824 9.85645 0 10.375 0C10.8936 0 11.3125 0.419824 11.3125 0.9375V1.875H12.7188C13.4951 1.875 14.125 2.50459 14.125 3.28125V4.6875H1V3.28125C1 2.50459 1.62959 1.875 2.40625 1.875H3.8125V0.9375ZM14.125 13.5938C14.125 14.3701 13.4951 15 12.7188 15H2.40625C1.62959 15 1 14.3701 1 13.5938V5.625H14.125V13.5938Z" fill="#466FFF"/>
</g>
<defs>
<clipPath id="clip0_1045_17770">
<rect width="13.125" height="15" fill="white" transform="translate(1)"/>
</clipPath>
</defs>
</svg>
