<svg width="28" height="25" viewBox="0 0 28 25" fill="none" xmlns="http://www.w3.org/2000/svg">
<g clip-path="url(#clip0_1028_6056)">
<path d="M27.2222 21.8752H24.8889V5.54217C24.8889 4.2116 23.8438 3.12518 22.5556 3.12518L17.1111 3.12567V6.25018H21.7778V25.0002H27.2222C27.6536 25.0002 28 24.6523 28 24.2629V22.7443C28 22.2219 27.6549 21.8752 27.2222 21.8752ZM13.6257 0.0493469L4.29236 2.47855C3.55347 2.6618 3.11111 3.30877 3.11111 4.04705V21.8752H0.777778C0.346354 21.8752 0 22.2231 0 22.6125V24.131C0 24.6535 0.346354 25.0002 0.777778 25.0002H15.5556V1.61785C15.5556 0.568048 14.6076 -0.207001 13.6257 0.0493469ZM11.2778 14.0627C10.6337 14.0627 10.1111 13.361 10.1111 12.5441C10.1111 11.6838 10.6337 11.0256 11.2778 11.0256C11.9219 11.0256 12.4444 11.6408 12.4444 12.5002C12.4444 13.3596 11.9243 14.0627 11.2778 14.0627Z" fill="#466FFF"/>
</g>
<defs>
<clipPath id="clip0_1028_6056">
<rect width="28" height="25" fill="white"/>
</clipPath>
</defs>
</svg>
