<svg width="25" height="25" viewBox="0 0 25 25" fill="none" xmlns="http://www.w3.org/2000/svg">
<path d="M8.75 13C5.98828 13 3.75 10.7617 3.75 8C3.75 5.23828 5.98828 3 8.75 3C11.5117 3 13.75 5.23828 13.75 8C13.75 10.7617 11.5117 13 8.75 13ZM6.96484 14.875H10.5352C11.3398 14.875 12.1133 15.0117 12.832 15.2617C12.6172 15.9297 12.5 16.6367 12.5 17.375C12.5 19.6992 13.6523 21.7539 15.4219 23H1.16016C0.519531 23 0 22.4805 0 21.8398C0 17.9922 3.11719 14.875 6.96484 14.875ZM25 17.375C25 20.4805 22.4805 23 19.375 23C16.2695 23 13.75 20.4805 13.75 17.375C13.75 14.2695 16.2695 11.75 19.375 11.75C22.4805 11.75 25 14.2695 25 17.375ZM19.375 14.25C19.0312 14.25 18.75 14.5312 18.75 14.875V17.375C18.75 17.7188 19.0312 18 19.375 18H21.25C21.5938 18 21.875 17.7188 21.875 17.375C21.875 17.0312 21.5938 16.75 21.25 16.75H20V14.875C20 14.5312 19.7188 14.25 19.375 14.25Z" fill="#466FFF"/>
</svg>
