<svg width="20" height="20" viewBox="0 0 20 20" fill="none" xmlns="http://www.w3.org/2000/svg">
<path d="M5.625 11.25C5.625 8.83203 7.58203 6.875 10 6.875C12.418 6.875 14.375 8.83203 14.375 11.25C14.375 13.668 12.418 15.625 10 15.625C7.58203 15.625 5.625 13.668 5.625 11.25ZM10 8.75C8.62109 8.75 7.5 9.87109 7.5 11.25C7.5 12.6289 8.62109 13.75 10 13.75C11.3789 13.75 12.5 12.6289 12.5 11.25C12.5 9.87109 11.3789 8.75 10 8.75ZM14.1758 2.53203L14.582 3.75H17.5C18.8789 3.75 20 4.87109 20 6.25V16.25C20 17.6289 18.8789 18.75 17.5 18.75H2.5C1.11914 18.75 0 17.6289 0 16.25V6.25C0 4.87109 1.11914 3.75 2.5 3.75H5.41797L5.82422 2.53203C6.07813 1.76641 6.79297 1.25 7.60156 1.25H12.3984C13.207 1.25 13.9219 1.76641 14.1758 2.53203ZM2.5 5.625C2.15469 5.625 1.875 5.90625 1.875 6.25V16.25C1.875 16.5938 2.15469 16.875 2.5 16.875H17.5C17.8438 16.875 18.125 16.5938 18.125 16.25V6.25C18.125 5.90625 17.8438 5.625 17.5 5.625H13.2305L12.3984 3.125H7.60156L6.76953 5.625H2.5Z" fill="#4E4B66"/>
</svg>
