<svg width="25" height="28" viewBox="0 0 25 28" fill="none" xmlns="http://www.w3.org/2000/svg">
<path d="M12.5 28C11.5513 28 10.6417 27.6336 9.9721 26.9773C9.30246 26.3211 8.92857 25.3805 8.92857 24.5H16.0714C16.0714 25.3805 15.6975 26.3211 15.0279 26.9773C14.3583 27.6336 13.3984 28 12.5 28Z" fill="#466FFF"/>
<path d="M14.2857 1.75V2.8C18.3594 3.61102 21.4286 7.14219 21.4286 11.375V12.4031C21.4286 14.9789 22.394 17.4562 24.135 19.3812L24.548 19.8352C25.0167 20.3547 25.1339 21.0875 24.8437 21.7164C24.5536 22.3453 23.9174 22.75 23.2143 22.75H1.7857C1.08258 22.75 0.444797 22.3453 0.156739 21.7164C-0.131319 21.0875 -0.0161015 20.3547 0.451103 19.8352L0.864942 19.3812C2.60825 17.4562 3.57142 14.9789 3.57142 12.4031V11.375C3.57142 7.14219 6.59039 3.61102 10.7143 2.8V1.75C10.7143 0.783672 11.5123 0 12.5 0C13.4877 0 14.2857 0.783672 14.2857 1.75Z" fill="#466FFF"/>
</svg>
