<svg width="25" height="25" viewBox="0 0 25 25" fill="none" xmlns="http://www.w3.org/2000/svg">
<g clip-path="url(#clip0_1539_21467)">
<path d="M16.4563 0.287301C16.405 0.208609 16.3241 0.139669 16.2212 0.0868631C16.1289 0.0361051 16.0144 0.00570212 15.8941 0H9.07528C8.95054 0.00164074 8.83086 0.0324623 8.73793 0.0868631C8.64304 0.141597 8.56945 0.210298 8.52324 0.287301L7 3H18L16.4563 0.287301Z" fill="#466FFF"/>
<path d="M8.55391 24.7187C8.60113 24.7973 8.67862 24.8665 8.77881 24.9196C8.8686 24.9723 8.98538 25.001 9.10596 25H15.9247C16.0453 25.001 16.1621 24.9723 16.2519 24.9196C16.3576 24.8686 16.4392 24.7989 16.487 24.7187L18 22H7L8.55391 24.7187Z" fill="#466FFF"/>
<path d="M7.13009 20.5202H17.9701C18.249 20.5193 18.5236 20.4507 18.7701 20.3202C19.0179 20.1987 19.2338 20.0205 19.4001 19.8002C19.7977 19.3044 20.0098 18.6856 20.0001 18.0502V6.98017C20.0064 6.6563 19.9521 6.3341 19.8401 6.03017C19.7481 5.72781 19.5987 5.446 19.4001 5.20017C19.2204 4.97843 18.9954 4.79772 18.7401 4.67017C18.4858 4.54435 18.2034 4.48583 17.9201 4.50017H7.04009C6.76243 4.51054 6.48997 4.57865 6.24009 4.70017C5.99098 4.82853 5.77264 5.00935 5.60009 5.23017C5.20688 5.72828 4.99523 6.34557 5.00008 6.98017V18.0402C4.99992 18.674 5.21106 19.2898 5.60009 19.7902C5.77004 20.011 5.98919 20.189 6.24009 20.3102C6.48615 20.4419 6.761 20.5106 7.04009 20.5102H7.12008" fill="#466FFF"/>
</g>
<defs>
<clipPath id="clip0_1539_21467">
<rect width="15" height="25" fill="white" transform="translate(5)"/>
</clipPath>
</defs>
</svg>
