<svg width="30" height="30" viewBox="0 0 30 30" fill="none" xmlns="http://www.w3.org/2000/svg">
<path d="M27.1299 5.76774C25.9328 4.35835 24.275 3.41734 22.45 3.11121C21.2932 2.91244 20.1062 2.98078 18.98 3.31096C17.7 3.68206 16.5342 4.36896 15.59 5.30835L14.98 5.95749L14.3199 5.30835C13.5046 4.49394 12.5185 3.87023 11.4327 3.48212C10.347 3.09402 9.18861 2.9512 8.04095 3.06391C6.8933 3.17661 5.78497 3.54204 4.79572 4.13392C3.80646 4.7258 2.96088 5.52938 2.31995 6.4868C1.45975 7.77654 1.00056 9.29147 1 10.8411V11.1507C1.001 12.2738 1.23217 13.3849 1.67932 14.4154C2.12647 15.4459 2.7801 16.3741 3.59998 17.1429L3.88995 17.4125L13.48 26.4008C13.8925 26.7854 14.4357 26.9995 15 27C15.5618 27.002 16.1027 26.7874 16.5099 26.4008L26.12 17.4125L26.4 17.1528C27.2198 16.3841 27.8735 15.4559 28.3206 14.4254C28.7678 13.3949 28.999 12.2838 29 11.1607V10.8511C28.9976 8.98921 28.3351 7.18833 27.1299 5.76774ZM21.9 15.0157C21.8975 15.1496 21.8595 15.2806 21.79 15.3952C21.6958 15.6784 21.5306 15.9328 21.31 16.1342C20.9926 16.4301 20.5742 16.5944 20.14 16.5936H16.72V19.8094C16.7224 20.026 16.678 20.2406 16.59 20.4386C16.4759 20.7053 16.2942 20.9377 16.0627 21.1128C15.8312 21.288 15.5579 21.3998 15.27 21.4373H15.05H14.92C14.8503 21.4471 14.7796 21.4471 14.71 21.4373C14.422 21.3998 14.1488 21.288 13.9173 21.1128C13.6858 20.9377 13.504 20.7053 13.39 20.4386C13.3019 20.2406 13.2575 20.026 13.2599 19.8094V16.5936H9.81995C9.38856 16.5949 8.97324 16.4304 8.65997 16.1342C8.4998 15.9905 8.37345 15.8131 8.28998 15.6149C8.28571 15.565 8.28571 15.5149 8.28998 15.4651C8.28481 15.4421 8.28481 15.4182 8.28998 15.3952C8.23131 15.2666 8.20061 15.127 8.19995 14.9857V14.7959C8.20061 14.6546 8.23131 14.5151 8.28998 14.3865V14.3266C8.28098 14.277 8.28098 14.2263 8.28998 14.1768C8.38035 13.977 8.50952 13.7971 8.66998 13.6475C8.98325 13.3513 9.39857 13.1867 9.82996 13.188H13.27V9.98223C13.2677 9.7624 13.312 9.54459 13.4 9.34308C13.4903 9.14329 13.6195 8.96338 13.78 8.81378C14.0388 8.57318 14.3685 8.42252 14.72 8.38431H14.9399H15.1299C15.1996 8.37448 15.2703 8.37448 15.34 8.38431C15.6956 8.42531 16.0287 8.57936 16.29 8.82374C16.4462 8.97098 16.5719 9.14745 16.66 9.34308C16.748 9.54459 16.7923 9.7624 16.79 9.98223V13.188H20.23C20.6616 13.1857 21.0773 13.3504 21.39 13.6475C21.5479 13.7954 21.6768 13.9715 21.77 14.1668C21.7744 14.2233 21.7744 14.28 21.77 14.3366V14.3865C21.8286 14.5151 21.8593 14.6546 21.86 14.7959L21.9 15.0157Z" fill="#466FFF"/>
</svg>
