<svg width="25" height="25" viewBox="0 0 25 25" fill="none" xmlns="http://www.w3.org/2000/svg">
<g clip-path="url(#clip0_1594_3889)">
<path opacity="0.5" d="M16.3701 0.429993C16.3199 0.312218 16.2408 0.209038 16.1401 0.130005C16.0498 0.0540372 15.9378 0.00853415 15.8201 0H9.15012C9.02811 0.00245563 8.91103 0.0485851 8.82013 0.130005C8.72731 0.211923 8.65532 0.314745 8.61012 0.429993L7.12012 4.48999H17.8801L16.3701 0.429993Z" fill="#A0A3BD"/>
<path opacity="0.5" d="M8.64012 24.5795C8.68632 24.6969 8.76211 24.8002 8.86012 24.8795C8.94795 24.9583 9.06218 25.0011 9.18013 24.9995H15.8501C15.9681 25.0011 16.0823 24.9583 16.1701 24.8795C16.2736 24.8033 16.3533 24.6993 16.4001 24.5795L17.8801 20.5195H7.12012L8.64012 24.5795Z" fill="#A0A3BD"/>
<path d="M7.13009 20.5202H17.9701C18.249 20.5193 18.5236 20.4507 18.7701 20.3202C19.0179 20.1987 19.2338 20.0205 19.4001 19.8002C19.7977 19.3044 20.0099 18.6856 20.0001 18.0502V6.98017C20.0064 6.6563 19.9521 6.3341 19.8401 6.03017C19.7481 5.72781 19.5987 5.446 19.4001 5.20017C19.2204 4.97843 18.9954 4.79772 18.7401 4.67017C18.4858 4.54435 18.2035 4.48583 17.9201 4.50017H7.04009C6.76243 4.51054 6.48997 4.57865 6.24009 4.70017C5.99098 4.82853 5.77264 5.00935 5.60009 5.23017C5.20688 5.72828 4.99523 6.34557 5.00008 6.98017V18.0402C4.99992 18.674 5.21106 19.2898 5.60009 19.7902C5.77004 20.011 5.98919 20.189 6.24009 20.3102C6.48615 20.4419 6.761 20.5106 7.04009 20.5102H7.12008" fill="#A0A3BD"/>
</g>
<line x1="4" y1="20.2635" x2="20.2635" y2="4.00007" stroke="#4E4B66" stroke-width="2" stroke-linecap="round"/>
<defs>
<clipPath id="clip0_1594_3889">
<rect width="15" height="25" fill="white" transform="translate(5)"/>
</clipPath>
</defs>
</svg>
