<svg width="19" height="13" viewBox="0 0 19 13" fill="none" xmlns="http://www.w3.org/2000/svg">
<path d="M5.07812 5.73438H0.125V6.96875H5.07812V5.73438ZM9.51562 5.9375C10.9688 5.94531 11.7734 4.83594 11.7812 3.21875C11.7734 1.625 11 0.515625 9.51562 0.515625C8.08594 0.515625 7.24219 1.625 7.25 3.21875C7.24219 4.83594 8.05469 5.94531 9.51562 5.9375ZM8.35938 12H9.625L17.4062 0.6875H16.1406L8.35938 12ZM8.39062 3.21875C8.39062 2.17969 8.77344 1.49219 9.51562 1.48438C10.3047 1.46875 10.6406 2.17969 10.6406 3.21875C10.6406 4.27344 10.2812 4.96875 9.51562 4.96875C8.75781 4.96875 8.39062 4.27344 8.39062 3.21875ZM14.1562 9.45312C14.1406 11.0625 14.9453 12.1641 16.4219 12.1562C17.8672 12.1641 18.6719 11.0625 18.6719 9.45312C18.6719 7.84375 17.8828 6.74219 16.4219 6.73438C14.9766 6.74219 14.1406 7.84375 14.1562 9.45312ZM15.2812 9.45312C15.2891 8.39844 15.6641 7.71094 16.4219 7.70312C17.2031 7.6875 17.5312 8.39844 17.5312 9.45312C17.5312 10.5 17.1797 11.1953 16.4219 11.1875C15.6562 11.1953 15.2891 10.5 15.2812 9.45312Z" fill="#4E4B66"/>
</svg>
