<svg width="25" height="25" viewBox="0 0 25 25" fill="none" xmlns="http://www.w3.org/2000/svg">
<path d="M8.59375 1.17188C8.59375 0.522461 8.07129 0 7.42188 0C6.77246 0 6.25 0.522461 6.25 1.17188V3.125C4.52637 3.125 3.125 4.52637 3.125 6.25H1.17188C0.522461 6.25 0 6.77246 0 7.42188C0 8.07129 0.522461 8.59375 1.17188 8.59375H3.125V11.3281H1.17188C0.522461 11.3281 0 11.8506 0 12.5C0 13.1494 0.522461 13.6719 1.17188 13.6719H3.125V16.4062H1.17188C0.522461 16.4062 0 16.9287 0 17.5781C0 18.2275 0.522461 18.75 1.17188 18.75H3.125C3.125 20.4736 4.52637 21.875 6.25 21.875V23.8281C6.25 24.4775 6.77246 25 7.42188 25C8.07129 25 8.59375 24.4775 8.59375 23.8281V21.875H11.3281V23.8281C11.3281 24.4775 11.8506 25 12.5 25C13.1494 25 13.6719 24.4775 13.6719 23.8281V21.875H16.4062V23.8281C16.4062 24.4775 16.9287 25 17.5781 25C18.2275 25 18.75 24.4775 18.75 23.8281V21.875C20.4736 21.875 21.875 20.4736 21.875 18.75H23.8281C24.4775 18.75 25 18.2275 25 17.5781C25 16.9287 24.4775 16.4062 23.8281 16.4062H21.875V13.6719H23.8281C24.4775 13.6719 25 13.1494 25 12.5C25 11.8506 24.4775 11.3281 23.8281 11.3281H21.875V8.59375H23.8281C24.4775 8.59375 25 8.07129 25 7.42188C25 6.77246 24.4775 6.25 23.8281 6.25H21.875C21.875 4.52637 20.4736 3.125 18.75 3.125V1.17188C18.75 0.522461 18.2275 0 17.5781 0C16.9287 0 16.4062 0.522461 16.4062 1.17188V3.125H13.6719V1.17188C13.6719 0.522461 13.1494 0 12.5 0C11.8506 0 11.3281 0.522461 11.3281 1.17188V3.125H8.59375V1.17188ZM10.1562 8.59375C10.4688 8.59375 10.7471 8.7793 10.874 9.0625L12.9248 13.75L13.6084 15.3125C13.7793 15.708 13.5986 16.167 13.208 16.3428C12.8174 16.5186 12.3535 16.333 12.1777 15.9424L11.6943 14.8438H8.61816L8.13965 15.9375C7.96875 16.333 7.50488 16.5137 7.10938 16.3379C6.71387 16.1621 6.5332 15.7031 6.70898 15.3076L7.39258 13.7451L9.44336 9.05762C9.56543 8.77441 9.84863 8.58887 10.1611 8.58887L10.1562 8.59375ZM11.0107 13.2812L10.1562 11.3232L9.30176 13.2812H11.0156H11.0107ZM16.4062 8.59375C16.8359 8.59375 17.1875 8.94531 17.1875 9.375V15.625C17.1875 16.0547 16.8359 16.4062 16.4062 16.4062C15.9766 16.4062 15.625 16.0547 15.625 15.625V9.375C15.625 8.94531 15.9766 8.59375 16.4062 8.59375Z" fill="#466FFF"/>
</svg>
