<svg width="20" height="20" viewBox="0 0 20 20" fill="none" xmlns="http://www.w3.org/2000/svg">
<g clip-path="url(#clip0_1539_26027)">
<path opacity="0.5" d="M18.1955 13.1641H1.80451C0.807907 13.1641 0 14.1282 0 15.3174V17.8474C0 19.0366 0.807907 20.0007 1.80451 20.0007H18.1955C19.1921 20.0007 20 19.0366 20 17.8474V15.3174C20 14.1282 19.1921 13.1641 18.1955 13.1641Z" fill="#DC2626"/>
<path d="M7.53696 1.03852e-06H12.4647C13.8071 1.03852e-06 15.0945 0.636334 16.0436 1.76901C16.9928 2.90169 17.5261 4.43794 17.5261 6.03979V13.1645H2.47266V6.03979C2.47266 5.24633 2.60367 4.46065 2.85821 3.72764C3.11275 2.99463 3.48583 2.32865 3.95614 1.76776C4.42644 1.20687 4.98475 0.762055 5.59916 0.458735C6.21357 0.155416 6.87205 -0.000464239 7.53696 1.03852e-06Z" fill="#DC2626"/>
</g>
<defs>
<clipPath id="clip0_1539_26027">
<rect width="20" height="20" fill="white"/>
</clipPath>
</defs>
</svg>
