<?xml version="1.0" standalone="no"?>
<!DOCTYPE svg PUBLIC "-//W3C//DTD SVG 20010904//EN"
 "http://www.w3.org/TR/2001/REC-SVG-20010904/DTD/svg10.dtd">
<svg version="1.0" xmlns="http://www.w3.org/2000/svg"
 width="25" height="25" viewBox="0 0 332.000000 332.000000"
 preserveAspectRatio="xMidYMid meet">

<g transform="translate(0.000000,332.000000) scale(0.100000,-0.100000)"
fill="#466FFF" stroke="none">
<path d="M930 3140 c-135 -12 -312 -53 -405 -95 -161 -73 -292 -183 -347 -289
-43 -85 -50 -189 -18 -283 13 -38 33 -85 46 -105 30 -47 30 -66 -1 -102 -21
-25 -86 -147 -106 -201 -34 -89 -48 -138 -54 -176 -3 -24 -8 -51 -10 -59 -18
-68 -13 -255 9 -355 20 -89 109 -267 149 -296 5 -3 7 -8 5 -11 -7 -9 91 -104
167 -160 109 -82 331 -185 352 -164 3 3 -2 22 -12 42 -10 21 -17 48 -17 61 0
21 -5 23 -44 23 -90 0 -156 60 -169 156 -6 37 -16 58 -43 86 -19 20 -39 35
-44 32 -4 -3 -8 -1 -8 5 0 10 -46 82 -58 91 -14 10 -70 146 -83 200 -12 56
-14 193 -3 265 3 22 15 70 26 107 11 37 21 73 22 80 2 13 72 143 91 167 5 7
34 40 64 72 49 54 53 61 39 77 -8 9 -28 40 -44 67 -16 28 -34 59 -41 70 -7 11
-15 27 -18 35 -4 8 -13 30 -21 48 -31 72 -10 138 69 215 108 106 275 168 505
189 307 28 598 -44 745 -186 104 -99 110 -151 37 -293 -28 -53 -58 -105 -67
-115 -9 -10 -13 -18 -8 -18 4 0 -3 -9 -16 -19 -23 -19 -23 -20 -4 -27 20 -7
99 -85 122 -121 73 -109 118 -240 132 -380 6 -56 8 -109 5 -117 -5 -14 8 -16
100 -16 l106 0 -1 68 c-2 196 -78 435 -180 563 l-30 38 35 75 c20 41 43 102
53 136 14 53 15 70 4 123 -13 67 -43 135 -73 167 -10 11 -16 20 -13 20 4 0
-17 23 -47 51 -79 77 -162 127 -293 180 -158 63 -407 95 -605 79z"/>
<path d="M909 2759 c-206 -27 -319 -100 -319 -208 0 -57 33 -109 112 -181 l58
-52 76 16 c119 25 306 21 449 -9 27 -6 37 0 91 52 34 32 70 74 79 93 20 38 26
136 10 148 -6 4 -21 21 -34 37 -12 17 -26 30 -29 30 -4 0 -19 8 -33 18 -49 32
-230 68 -336 66 -32 -1 -88 -5 -124 -10z m332 -105 c124 -35 159 -68 139 -128
-6 -18 -27 -50 -47 -71 -32 -33 -40 -36 -72 -31 -91 15 -306 18 -391 7 -49 -7
-97 -10 -107 -6 -24 8 -83 99 -83 128 0 44 75 91 163 103 23 4 44 8 46 10 2 2
70 4 151 4 103 0 163 -5 201 -16z"/>
<path d="M1349 1987 c-72 -48 -70 -27 -67 -700 3 -567 4 -604 22 -629 62 -92
192 -87 248 9 16 26 18 76 24 444 4 228 3 504 -1 614 l-7 200 -43 43 c-38 38
-47 42 -92 42 -36 0 -60 -7 -84 -23z"/>
<path d="M2467 1990 c-14 -11 -29 -20 -34 -20 -5 0 -17 -16 -26 -35 -15 -32
-17 -94 -17 -639 l0 -603 23 -33 c28 -42 81 -70 131 -70 33 0 46 7 87 49 l49
48 0 609 c0 519 -2 613 -15 630 -8 12 -12 24 -9 27 3 3 -14 17 -39 31 -54 32
-114 34 -150 6z"/>
<path d="M975 1726 c-77 -35 -105 -86 -105 -196 l0 -80 -100 0 -100 0 0 -145
0 -145 100 0 100 0 0 -82 c0 -85 19 -148 52 -176 32 -26 91 -39 130 -29 21 5
38 14 38 19 0 5 4 7 9 3 5 -3 22 10 36 30 l27 35 2 327 c1 310 0 330 -19 368
-14 28 -33 47 -65 63 -51 25 -64 26 -105 8z"/>
<path d="M2897 1726 c-46 -17 -64 -31 -85 -70 -15 -27 -17 -70 -17 -351 0
-312 1 -321 22 -362 19 -34 32 -45 79 -63 l57 -21 45 23 c72 36 86 63 92 176
l5 97 103 -4 102 -3 0 74 c0 41 -3 109 -6 151 l-7 76 -96 3 -96 3 -6 98 c-5
90 -8 99 -35 128 -28 29 -83 60 -108 59 -6 -1 -28 -7 -49 -14z"/>
<path d="M1700 1305 l0 -144 275 -3 275 -3 0 148 0 147 -275 0 -275 0 0 -145z"/>
<path d="M1968 982 l-227 -2 -3 -168 c-3 -139 -6 -174 -22 -207 -11 -22 -20
-42 -20 -45 -5 -20 -87 -86 -134 -108 -47 -22 -71 -27 -138 -27 -72 0 -87 4
-144 33 -34 18 -68 39 -74 45 -31 32 -76 113 -87 156 l-12 48 -66 -5 c-36 -2
-83 0 -104 6 -35 10 -42 8 -79 -19 -58 -41 -126 -40 -255 5 -133 46 -163 59
-163 69 0 4 -4 5 -10 2 -5 -3 -10 -1 -10 4 0 6 -4 11 -10 11 -5 0 -39 18 -76
40 l-65 41 -70 -38 c-77 -42 -95 -56 -132 -105 -56 -74 -47 -135 30 -212 90
-89 256 -161 523 -226 143 -35 201 -45 410 -71 472 -57 972 -46 1470 30 226
35 532 128 594 180 10 9 20 14 23 12 9 -7 107 70 135 106 55 72 47 132 -29
209 -48 49 -56 52 -75 27 -7 -10 -35 -29 -63 -43 -42 -21 -63 -25 -141 -25
l-92 0 -5 -31 c-9 -53 -48 -123 -94 -169 -62 -60 -148 -89 -245 -83 -38 3 -75
11 -81 17 -6 6 -19 11 -29 11 -28 0 -116 88 -146 145 -24 46 -27 62 -32 219
-3 102 -9 170 -15 170 -5 1 -112 0 -237 -2z"/>
</g>
</svg>
