<svg width="20" height="20" viewBox="0 0 20 20" fill="none" xmlns="http://www.w3.org/2000/svg">
<g clip-path="url(#clip0_1539_26234)">
<path opacity="0.5" d="M18.1955 13.1641H1.80451C0.807907 13.1641 0 14.1282 0 15.3174V17.8474C0 19.0366 0.807907 20.0007 1.80451 20.0007H18.1955C19.1921 20.0007 20 19.0366 20 17.8474V15.3174C20 14.1282 19.1921 13.1641 18.1955 13.1641Z" fill="white"/>
<path d="M7.53794 1.03852e-06H12.4657C13.8081 1.03852e-06 15.0954 0.636334 16.0446 1.76901C16.9938 2.90169 17.5271 4.43794 17.5271 6.03979V13.1645H2.47363V6.03979C2.47363 5.24633 2.60465 4.46065 2.85919 3.72764C3.11373 2.99463 3.48681 2.32865 3.95711 1.76776C4.42742 1.20687 4.98572 0.762055 5.60014 0.458735C6.21455 0.155416 6.87302 -0.000464239 7.53794 1.03852e-06Z" fill="white"/>
</g>
<defs>
<clipPath id="clip0_1539_26234">
<rect width="20" height="20" fill="white"/>
</clipPath>
</defs>
</svg>
