<svg width="25" height="25" viewBox="0 0 25 25" fill="none" xmlns="http://www.w3.org/2000/svg">
<path d="M16.2256 20.8272C11.6782 21.6924 7.50977 18.2132 7.50977 13.633C7.50977 10.9888 8.92578 8.56395 11.2207 7.25281C11.5808 7.05175 11.4868 6.51585 11.084 6.44273C5.30762 5.37628 0 9.79223 0 15.6412C0 20.8077 4.1875 24.9995 9.36523 24.9995C12.2583 24.9995 14.8926 23.6937 16.6357 21.5369C16.8994 21.222 16.6162 20.7493 16.2256 20.8272Z" fill="#466FFF"/>
<path d="M14.0629 3.11958L14.6694 4.5711C14.6991 4.6308 14.7773 4.67925 14.8441 4.67925C14.9108 4.67925 14.989 4.6308 15.0187 4.5711L15.6251 3.11958L17.0797 2.51422C17.1391 2.52835 17.1879 2.44988 17.1879 2.33972C17.1879 2.27319 17.1395 2.19511 17.08 2.16543L15.6254 1.56006L15.0189 0.108059C14.9892 0.0482538 14.9111 0 14.8443 0C14.7776 0 14.6994 0.0482635 14.6696 0.108059L14.0632 1.56006L12.6079 2.2091C12.5484 2.2388 12.5 2.31686 12.5 2.3834C12.5 2.44964 12.5484 2.52821 12.6079 2.55789L14.0629 3.11958ZM24.7856 10.616L21.8754 9.40232L20.6606 6.49589C20.5961 6.37062 20.4594 6.23902 20.3129 6.23902C20.1665 6.23902 20.0322 6.32432 19.965 6.45226L18.7504 9.40232L15.8388 10.615C15.7133 10.6842 15.6254 10.8158 15.6254 10.962C15.6254 11.1083 15.7109 11.2423 15.8391 11.3093L18.7504 12.5218L19.9653 15.4282C20.0346 15.5583 20.1665 15.6412 20.3129 15.6412C20.4594 15.6412 20.5937 15.5559 20.6608 15.428L21.8754 12.5218L24.7871 11.3091C24.9174 11.2447 25.0004 11.1083 25.0004 10.962C25.0004 10.8158 24.9174 10.6842 24.7856 10.616Z" fill="#466FFF"/>
</svg>
