<svg width="25" height="25" viewBox="0 0 25 25" fill="none" xmlns="http://www.w3.org/2000/svg">
<g clip-path="url(#clip0_1539_21390)">
<path d="M21.9763 10.3137H14.8382C13.9613 10.3137 13.252 9.60418 13.252 8.72701C13.252 7.84985 13.9613 7.14028 14.8382 7.14028H20.3901V1.58673C20.3901 0.709566 21.0994 0 21.9763 0C22.8532 0 23.5626 0.709566 23.5626 1.58673V8.72701C23.5626 9.60467 22.8537 10.3137 21.9763 10.3137Z" fill="#466FFF"/>
<path d="M18.6308 18.5514C19.1558 19.2535 19.015 20.2482 18.3148 20.7733C16.3801 22.2252 14.0835 22.9977 11.6625 22.9977C5.54431 22.9992 0.5625 18.0159 0.5625 11.8971C0.5625 5.77824 5.54431 0.794922 11.6613 0.794922C15.089 0.794922 18.3037 2.40496 20.3906 5.06521V7.13688H17.981C16.4954 5.16834 14.1517 3.97433 11.6558 3.97433C7.28918 3.97433 3.73499 7.5286 3.73499 11.8971C3.73499 16.2655 7.28868 19.8208 11.6563 19.8208C13.3853 19.8208 15.0286 19.2739 16.4091 18.237C17.114 17.7134 18.1054 17.8523 18.6308 18.5514Z" fill="#466FFF"/>
</g>
<defs>
<clipPath id="clip0_1539_21390">
<rect width="25" height="25" fill="white"/>
</clipPath>
</defs>
</svg>
