<svg width="25" height="25" viewBox="0 0 25 25" fill="none" xmlns="http://www.w3.org/2000/svg">
<path d="M23.5688 3.51628V9.96159C23.5688 10.7534 22.9274 11.3939 22.1365 11.3939H16.4073C15.6164 11.3939 14.975 10.7534 14.975 9.96159C14.975 9.1698 15.6164 8.5293 16.4073 8.5293H18.3937C17.1369 6.76131 15.0869 5.66471 12.8266 5.66471C9.84564 5.66471 7.22724 7.56698 6.31415 10.4002C6.07245 11.1522 5.26589 11.5684 4.50991 11.3223C3.75751 11.0803 3.34394 10.2718 3.58743 9.51937C4.88589 5.5009 8.59687 2.80013 12.8266 2.80013C16.0206 2.80013 18.9183 4.34521 20.7042 6.83248V3.51628C20.7042 2.72449 21.3456 2.08398 22.1365 2.08398C22.9274 2.08398 23.5688 2.72449 23.5688 3.51628Z" fill="#466FFF"/>
<path d="M22.0645 16.1287C20.7664 20.1526 17.0514 22.8516 12.7859 22.8516C9.63037 22.8516 6.73446 21.3074 4.94857 18.8188V22.1354C4.94857 22.9272 4.30717 23.5677 3.51628 23.5677C2.72538 23.5677 2.08398 22.9272 2.08398 22.1354V15.6901C2.08398 14.8983 2.72538 14.2578 3.51628 14.2578H9.24544C10.0363 14.2578 10.6777 14.8983 10.6777 15.6901C10.6777 16.4819 10.0363 17.1224 9.24544 17.1224H7.25814C8.51587 18.8904 10.5658 19.987 12.8262 19.987C15.8062 19.987 18.4255 18.0834 19.3386 15.2515C19.5813 14.5004 20.3851 14.0864 21.1424 14.3299C21.8944 14.5308 22.3106 15.3768 22.0645 16.1287Z" fill="#466FFF"/>
</svg>
