<svg width="30" height="30" viewBox="0 0 30 30" fill="none" xmlns="http://www.w3.org/2000/svg">
<path d="M15.5 24.3897C22.3958 24.3897 28 19.8308 28 14.1948C28 8.55893 22.3958 4 15.5 4C8.60417 4 3 8.56938 3 14.1948C3.02471 16.39 3.85127 18.4996 5.3229 20.1235C5.22492 21.2366 4.86814 22.311 4.28123 23.2604C4.0596 23.626 3.81249 23.9755 3.54169 24.306L3.30187 24.5884L3.23956 24.6616C3.12979 24.7719 3.0552 24.9125 3.02543 25.0655C2.99567 25.2185 3.01211 25.377 3.07248 25.5207C3.13285 25.6643 3.23447 25.7866 3.36443 25.872C3.49439 25.9574 3.6468 26.0019 3.8021 25.9999C5.17871 25.9544 6.53186 25.6308 7.78109 25.0484C8.71717 24.6467 9.60772 24.1454 10.4374 23.5532C12.0682 24.1401 13.7885 24.4373 15.5209 24.4315L15.5 24.3897ZM9.25 15.7633C8.94097 15.7633 8.63873 15.6713 8.38177 15.4989C8.12482 15.3266 7.92453 15.0817 7.80626 14.7951C7.688 14.5085 7.65722 14.1931 7.71751 13.8888C7.7778 13.5846 7.92649 13.3051 8.14501 13.0858C8.36353 12.8664 8.64198 12.7171 8.94508 12.6565C9.24817 12.596 9.56238 12.6271 9.84789 12.7458C10.1334 12.8645 10.3773 13.0655 10.549 13.3235C10.7207 13.5814 10.8125 13.8846 10.8125 14.1948C10.8125 14.6108 10.6478 15.0098 10.3547 15.3039C10.0617 15.5981 9.6644 15.7633 9.25 15.7633ZM15.5 15.7633C15.191 15.7633 14.8887 15.6713 14.6318 15.4989C14.3748 15.3266 14.1745 15.0817 14.0563 14.7951C13.938 14.5085 13.9072 14.1931 13.9675 13.8888C14.0278 13.5846 14.1765 13.3051 14.395 13.0858C14.6135 12.8664 14.892 12.7171 15.1951 12.6565C15.4982 12.596 15.8124 12.6271 16.0979 12.7458C16.3834 12.8645 16.6273 13.0655 16.799 13.3235C16.9707 13.5814 17.0625 13.8846 17.0625 14.1948C17.0625 14.6108 16.8978 15.0098 16.6047 15.3039C16.3117 15.5981 15.9144 15.7633 15.5 15.7633ZM23.3125 14.1948C23.3125 14.5051 23.2207 14.8083 23.049 15.0662C22.8773 15.3242 22.6334 15.5252 22.3479 15.6439C22.0624 15.7626 21.7482 15.7937 21.4451 15.7332C21.142 15.6726 20.8635 15.5233 20.645 15.3039C20.4265 15.0846 20.2778 14.805 20.2175 14.5008C20.1572 14.1966 20.188 13.8812 20.3063 13.5946C20.4245 13.308 20.6248 13.0631 20.8818 12.8908C21.1387 12.7184 21.441 12.6264 21.75 12.6264C22.1644 12.6264 22.5617 12.7916 22.8547 13.0858C23.1478 13.3799 23.3125 13.7789 23.3125 14.1948Z" fill="#E3E3E3"/>
</svg>
