<?xml version="1.0" standalone="no"?>
<!DOCTYPE svg PUBLIC "-//W3C//DTD SVG 20010904//EN"
 "http://www.w3.org/TR/2001/REC-SVG-20010904/DTD/svg10.dtd">
<svg version="1.0" xmlns="http://www.w3.org/2000/svg"
 width="25" height="25" viewBox="0 0 200.000000 200.000000"
 preserveAspectRatio="xMidYMid meet">

<g transform="translate(0.000000,200.000000) scale(0.100000,-0.100000)"
fill="#466FFF" stroke="none">
<path d="M330 1986 c-30 -6 -70 -20 -89 -30 -57 -30 -127 -110 -150 -171 -25
-67 -28 -173 -6 -234 16 -46 51 -101 65 -101 5 0 30 33 56 73 71 106 221 251
332 317 50 30 91 58 92 63 0 4 -21 21 -47 37 -77 49 -168 66 -253 46z"/>
<path d="M1543 1990 c-65 -13 -163 -68 -163 -91 0 -4 26 -22 59 -39 133 -71
294 -224 372 -353 20 -34 40 -56 49 -54 8 1 29 27 45 57 27 50 30 63 30 150 0
114 -22 168 -97 242 -73 71 -195 107 -295 88z"/>
<path d="M873 1841 c-194 -31 -365 -122 -505 -269 -93 -97 -158 -205 -200
-332 -31 -91 -32 -102 -32 -260 -1 -189 10 -243 75 -379 54 -114 115 -197 204
-278 l75 -68 -85 -85 c-88 -89 -100 -113 -67 -143 39 -36 69 -23 168 75 l93
91 59 -26 c199 -90 470 -91 680 -5 l74 31 92 -92 c77 -76 96 -91 123 -91 32 0
63 29 63 59 0 7 -38 53 -85 101 l-86 87 65 57 c190 167 296 404 296 663 0 223
-80 424 -234 590 -118 127 -258 211 -421 253 -89 24 -269 34 -352 21z m-46
-298 c18 -9 45 -29 60 -47 35 -40 572 -795 596 -839 14 -24 17 -48 15 -99 -5
-87 -39 -139 -118 -181 -47 -24 -64 -28 -115 -25 -105 6 -106 8 -429 462 -161
226 -300 425 -309 443 -10 18 -17 55 -17 86 0 160 171 267 317 200z"/>
<path d="M1025 914 c-71 -51 -130 -99 -129 -106 2 -24 245 -367 275 -389 35
-24 100 -35 154 -25 43 8 103 59 121 103 19 43 18 117 -2 154 -34 66 -257 359
-273 358 -9 0 -74 -43 -146 -95z"/>
</g>
</svg>
