<?xml version="1.0" standalone="no"?>
<!DOCTYPE svg PUBLIC "-//W3C//DTD SVG 20010904//EN"
 "http://www.w3.org/TR/2001/REC-SVG-20010904/DTD/svg10.dtd">
<svg version="1.0" xmlns="http://www.w3.org/2000/svg"
 width="20" height="20" viewBox="0 0 200.000000 200.000000"
 preserveAspectRatio="xMidYMid meet">

<g transform="translate(0.000000,200.000000) scale(0.100000,-0.100000)"
fill="#000000" stroke="none">
<path d="M872 1990 c-251 -35 -494 -172 -647 -363 -82 -103 -157 -252 -191
-382 -23 -86 -27 -120 -27 -245 0 -125 4 -159 27 -245 93 -356 365 -627 721
-721 86 -23 120 -27 245 -27 125 0 159 4 245 27 356 94 628 365 721 721 23 86
27 120 27 245 0 125 -4 159 -27 245 -113 429 -484 731 -924 749 -59 3 -135 1
-170 -4z m380 -207 c136 -47 231 -106 328 -203 96 -97 155 -191 204 -328 30
-84 31 -93 31 -252 0 -159 -1 -168 -31 -252 -49 -137 -108 -231 -204 -328 -97
-96 -191 -155 -328 -204 -84 -30 -93 -31 -252 -31 -159 0 -168 1 -252 31 -137
49 -231 108 -328 204 -96 97 -155 191 -204 328 -30 84 -31 93 -31 252 0 159 1
168 31 252 87 244 253 420 484 514 109 44 172 54 325 50 126 -2 149 -6 227
-33z"/>
<path d="M668 1317 c-180 -94 -324 -175 -320 -178 15 -13 640 -339 651 -339 6
0 92 41 191 90 99 50 184 90 190 90 6 0 10 -56 10 -150 0 -168 8 -198 60 -225
48 -25 70 -20 70 15 0 23 -6 33 -25 40 -38 14 -45 47 -45 210 l0 149 28 19
c15 10 62 38 105 61 43 24 77 44 75 46 -7 6 -655 345 -659 345 -2 0 -151 -78
-331 -173z"/>
<path d="M700 772 l0 -107 151 -79 152 -79 148 74 149 73 0 114 0 113 -148
-76 -148 -77 -152 76 -152 76 0 -108z"/>
</g>
</svg>
