<svg width="30" height="30" viewBox="0 0 30 30" fill="none" xmlns="http://www.w3.org/2000/svg">
<g clip-path="url(#clip0_1539_3300)">
<path opacity="0.5" d="M19.644 0.515991C19.5838 0.374661 19.4889 0.250845 19.368 0.156006C19.2596 0.0648446 19.1253 0.010241 18.984 0H10.98C10.8336 0.00294675 10.6931 0.0583022 10.584 0.156006C10.4726 0.254308 10.3863 0.377694 10.332 0.515991L8.54401 5.38799H21.456L19.644 0.515991Z" fill="#466FFF"/>
<path opacity="0.5" d="M10.368 29.496C10.4234 29.6368 10.5144 29.7608 10.632 29.856C10.7374 29.9505 10.8745 30.0019 11.016 30H19.02C19.1616 30.0019 19.2986 29.9505 19.404 29.856C19.5282 29.7645 19.6239 29.6397 19.68 29.496L21.456 24.624H8.54401L10.368 29.496Z" fill="#466FFF"/>
<path d="M8.55604 24.624H21.564C21.8988 24.623 22.2282 24.5407 22.524 24.384C22.8215 24.2382 23.0805 24.0244 23.28 23.76C23.7571 23.1651 24.0118 22.4225 24 21.66V8.376C24.0076 7.98736 23.9425 7.60073 23.808 7.23601C23.6976 6.87317 23.5184 6.53501 23.28 6.24C23.0644 5.97393 22.7944 5.75707 22.488 5.60401C22.1828 5.45303 21.8441 5.3828 21.504 5.40001H8.44805C8.11485 5.41245 7.7879 5.49419 7.48804 5.64C7.18911 5.79405 6.9271 6.01102 6.72004 6.276C6.2482 6.87375 5.99422 7.61449 6.00004 8.376V21.648C5.99985 22.4086 6.25321 23.1476 6.72004 23.748C6.92399 24.013 7.18697 24.2266 7.48804 24.372C7.78332 24.53 8.11314 24.6125 8.44805 24.612H8.54403" fill="#466FFF"/>
</g>
<defs>
<clipPath id="clip0_1539_3300">
<rect width="18" height="30" fill="white" transform="translate(6)"/>
</clipPath>
</defs>
</svg>
