<svg width="25" height="25" viewBox="0 0 25 25" fill="none" xmlns="http://www.w3.org/2000/svg">
<g clip-path="url(#clip0_1539_21479)">
<path d="M18.75 3.125H6.25C4.52393 3.125 3.125 4.52441 3.125 6.25V18.75C3.125 20.4756 4.52393 21.875 6.25 21.875H18.75C20.4761 21.875 21.875 20.4756 21.875 18.75V6.25C21.875 4.52441 20.4736 3.125 18.75 3.125ZM18.75 17.9688C18.75 18.4002 18.4003 18.75 17.9688 18.75H7.03125C6.60156 18.75 6.25 18.3984 6.25 17.9688V7.03125C6.25 6.60156 6.60156 6.25 7.03125 6.25H17.9688C18.3984 6.25 18.75 6.60156 18.75 7.03125V17.9688Z" fill="#466FFF"/>
<path d="M0 7.8125C0 8.24395 0.349805 8.59375 0.78125 8.59375H3.125V7.03125H0.78125C0.349805 7.03125 0 7.38281 0 7.8125ZM0 12.5C0 12.9314 0.349805 13.2812 0.78125 13.2812H3.125V11.7188H0.78125C0.349805 11.7188 0 12.0703 0 12.5ZM8.59375 0.78125C8.59375 0.349805 8.24219 0 7.8125 0C7.38281 0 7.03125 0.349805 7.03125 0.78125V3.125H8.59375V0.78125ZM0 17.1875C0 17.6189 0.349805 17.9688 0.78125 17.9688H3.125V16.4062H0.78125C0.349805 16.4062 0 16.7578 0 17.1875ZM13.2812 0.78125C13.2812 0.349805 12.9297 0 12.5 0C12.0703 0 11.7188 0.349805 11.7188 0.78125V3.125H13.2812V0.78125ZM25 7.8125C25 7.38105 24.6503 7.03125 24.2188 7.03125H21.875V8.59375H24.2188C24.6484 8.59375 25 8.24219 25 7.8125ZM24.2188 16.4062H21.875V17.9688H24.2188C24.6503 17.9688 25 17.6189 25 17.1875C25 16.7561 24.6484 16.4062 24.2188 16.4062ZM17.1875 0C16.7561 0 16.4062 0.349805 16.4062 0.78125V3.125H17.9688V0.78125C17.9688 0.349805 17.6172 0 17.1875 0ZM24.2188 11.7188H21.875V13.2812H24.2188C24.6484 13.2812 25 12.9297 25 12.5C25 12.0703 24.6484 11.7188 24.2188 11.7188ZM7.03125 24.2188C7.03125 24.6484 7.38281 25 7.8125 25C8.24404 25 8.59375 24.6502 8.59375 24.2188V21.875H7.03125V24.2188ZM16.4062 24.2188C16.4062 24.6502 16.7561 25 17.1875 25C17.619 25 17.9688 24.6502 17.9688 24.2188V21.875H16.4062V24.2188ZM11.7188 24.2188C11.7188 24.6502 12.0686 25 12.5 25C12.9315 25 13.2812 24.6502 13.2812 24.2188V21.875H11.7188V24.2188ZM7.8125 17.1875H17.1875V7.8125H7.8125V17.1875Z" fill="#466FFF"/>
</g>
<defs>
<clipPath id="clip0_1539_21479">
<rect width="25" height="25" fill="white"/>
</clipPath>
</defs>
</svg>
