<svg width="25" height="24" viewBox="0 0 25 24" fill="none" xmlns="http://www.w3.org/2000/svg">
<path d="M8.75 11.6C11.5117 11.6 13.75 9.45088 13.75 6.8C13.75 4.14913 11.5117 2 8.75 2C5.98828 2 3.75 4.14913 3.75 6.8C3.75 9.45088 5.98828 11.6 8.75 11.6ZM10.7305 13.4H6.76953C3.03008 13.4 0 16.31 0 19.8988C0 20.6187 0.60625 21.2 1.35391 21.2H16.1445C16.8945 21.2 17.5 20.6187 17.5 19.8988C17.5 16.31 14.4688 13.4 10.7305 13.4Z" fill="#466FFF"/>
<path d="M18.7145 13.9992H15.8297C17.6246 15.413 18.7496 17.528 18.7496 19.898C18.7496 20.378 18.6012 20.8205 18.359 21.1992H23.7496C24.441 21.1992 24.9996 20.6592 24.9996 19.9655C24.9996 16.6842 22.2027 13.9992 18.7145 13.9992ZM16.8746 11.5992C19.2926 11.5992 21.2496 9.72047 21.2496 7.39922C21.2496 5.07797 19.2926 3.19922 16.8746 3.19922C15.8937 3.19922 14.998 3.52003 14.2684 4.04334C14.7184 4.87284 14.9996 5.80172 14.9996 6.79922C14.9996 8.13122 14.5336 9.35447 13.7656 10.3508C14.5582 11.1192 15.6559 11.5992 16.8746 11.5992Z" fill="#466FFF"/>
</svg>
