<svg width="25" height="25" viewBox="0 0 25 25" fill="none" xmlns="http://www.w3.org/2000/svg">
<g clip-path="url(#clip0_1028_5636)">
<path d="M18.75 6.25C18.75 6.55063 18.594 6.85107 18.282 7.00732L8.59375 11.8506V21.7432C7.2168 21.5039 6.25 20.9521 6.25 20.3125V0.847656C6.25 0.356934 6.65278 0 7.09717 0C7.22266 0 7.35142 0.0284961 7.47539 0.0904785L18.2812 5.49316C18.5938 5.64941 18.75 5.95215 18.75 6.25Z" fill="#466FFF"/>
<path d="M25 20.3125C25 22.9014 19.4043 25 12.5 25C5.5957 25 0 22.9014 0 20.3125C0 18.5786 2.51709 17.0679 6.25 16.2573V20.3125C6.25 21.1753 7.99902 21.875 10.1562 21.875C12.3135 21.875 14.0625 21.1753 14.0625 20.3125C14.0625 19.4497 12.3135 18.75 10.1562 18.75C9.6001 18.75 9.07275 18.7981 8.59375 18.8819V15.8619C9.82422 15.708 11.1328 15.625 12.5 15.625C19.4043 15.625 25 17.6807 25 20.3125Z" fill="#466FFF"/>
</g>
<defs>
<clipPath id="clip0_1028_5636">
<rect width="25" height="25" fill="white"/>
</clipPath>
</defs>
</svg>
