<svg width="80" height="80" viewBox="0 0 80 80" fill="none" xmlns="http://www.w3.org/2000/svg">
<circle cx="40" cy="40" r="40" fill="#F4F5F7"/>
<g clip-path="url(#clip0_1574_3170)">
<path d="M40.5 40C46.0234 40 50.5 35.5227 50.5 30C50.5 24.4773 46.0234 20 40.5 20C34.9766 20 30.5 24.4773 30.5 30C30.5 35.5227 34.9766 40 40.5 40ZM44.4609 43.75H36.5391C29.0633 43.75 23 49.8125 23 57.2891C23 58.7844 24.2125 59.9977 25.7078 59.9977H55.2937C56.7891 60 58 58.7891 58 57.2891C58 49.8125 51.9375 43.75 44.4609 43.75Z" fill="#A0A3BD"/>
</g>
<defs>
<clipPath id="clip0_1574_3170">
<rect width="35" height="40" fill="white" transform="translate(23 20)"/>
</clipPath>
</defs>
</svg>
